<svg style="fill-rule:evenodd;clip-rule:evenodd;stroke-linejoin:round;stroke-miterlimit:2;" xml:space="preserve" xmlns:xlink="http://www.w3.org/1999/xlink" xmlns="http://www.w3.org/2000/svg" version="1.1" viewBox="0 0 358 42" height="100%" width="100%"><path style="fill:#171717;fill-rule:nonzero;" d="M13.356,28.421c-0.058,0.1 -0.115,0.2 -0.173,0.299c-0.776,1.343 -1.376,2.755 -1.675,4.284c-0.43,2.193 -0.159,4.308 0.737,6.345c0.233,0.531 0.522,1.036 0.787,1.552c0.046,0.09 0.097,0.178 0.181,0.331c-0.165,-0.082 -0.264,-0.13 -0.363,-0.181c-1.23,-0.645 -2.513,-1.15 -3.88,-1.421c-2.462,-0.488 -4.81,-0.137 -7.046,0.985c-0.452,0.226 -0.882,0.496 -1.323,0.745c-0.069,0.039 -0.139,0.076 -0.245,0.08c0.053,-0.096 0.104,-0.194 0.16,-0.288c0.752,-1.26 1.326,-2.592 1.614,-4.038c0.382,-1.914 0.182,-3.78 -0.468,-5.609c-0.377,-1.058 -0.883,-2.054 -1.474,-3.008c-0.053,-0.086 -0.1,-0.175 -0.186,-0.326c0.164,0.088 0.263,0.139 0.361,0.195c1.353,0.774 2.765,1.403 4.289,1.761c2.589,0.608 5.052,0.256 7.391,-0.993c0.436,-0.234 0.858,-0.495 1.285,-0.743c0.01,0.01 0.019,0.02 0.028,0.03"></path><path style="fill:#171717;fill-rule:nonzero;" d="M0,0.076c0.185,0.102 0.302,0.167 0.418,0.233c1.375,0.777 2.808,1.409 4.358,1.755c2.377,0.53 4.659,0.261 6.843,-0.807c0.492,-0.241 0.959,-0.532 1.437,-0.8c0.087,-0.049 0.171,-0.102 0.29,-0.121c-0.054,0.097 -0.105,0.196 -0.162,0.293c-0.776,1.343 -1.376,2.755 -1.676,4.284c-0.439,2.239 -0.145,4.391 0.785,6.462c0.219,0.491 0.49,0.958 0.738,1.435c0.047,0.091 0.099,0.18 0.183,0.331c-0.15,-0.072 -0.24,-0.112 -0.328,-0.159c-1.229,-0.648 -2.51,-1.154 -3.875,-1.432c-2.439,-0.497 -4.767,-0.162 -6.992,0.931c-0.463,0.228 -0.904,0.499 -1.355,0.752c-0.091,0.051 -0.179,0.107 -0.317,0.128c0.052,-0.093 0.102,-0.188 0.158,-0.28c0.655,-1.092 1.176,-2.242 1.495,-3.478c0.558,-2.168 0.372,-4.29 -0.407,-6.374c-0.37,-0.992 -0.853,-1.929 -1.41,-2.829c-0.052,-0.085 -0.098,-0.174 -0.183,-0.324"></path><path style="fill:#171717;fill-rule:nonzero;" d="M15.189,26.951c0.058,-0.111 0.116,-0.222 0.175,-0.333c0.715,-1.35 1.272,-2.757 1.551,-4.266c0.431,-2.323 0.101,-4.539 -0.93,-6.654c-0.249,-0.512 -0.541,-1.003 -0.844,-1.56c0.132,0.069 0.226,0.115 0.318,0.168c1.125,0.64 2.304,1.145 3.57,1.437c2.102,0.486 4.151,0.287 6.156,-0.478c1.011,-0.386 1.961,-0.887 2.871,-1.466c0.09,-0.057 0.18,-0.11 0.271,-0.163c0.006,-0.003 0.017,0.003 0.05,0.01c-0.055,0.104 -0.106,0.203 -0.162,0.3c-0.775,1.34 -1.417,2.736 -1.8,4.242c-0.696,2.73 -0.318,5.316 1.043,7.771c0.141,0.254 0.289,0.505 0.47,0.822c-0.167,-0.081 -0.268,-0.127 -0.367,-0.178c-1.308,-0.656 -2.665,-1.167 -4.111,-1.431c-2.417,-0.439 -4.706,-0.057 -6.882,1.055c-0.458,0.234 -0.899,0.502 -1.347,0.755c-0.011,-0.01 -0.022,-0.02 -0.032,-0.031"></path><path style="fill:#171717;fill-rule:nonzero;" d="M42.98,0.14c-0.083,0.146 -0.165,0.292 -0.249,0.437c-0.757,1.338 -1.38,2.73 -1.742,4.23c-0.606,2.505 -0.303,4.902 0.863,7.194c0.2,0.395 0.423,0.778 0.675,1.236c-0.144,-0.069 -0.232,-0.109 -0.318,-0.153c-1.154,-0.582 -2.348,-1.054 -3.611,-1.34c-2.82,-0.637 -5.47,-0.188 -7.967,1.241c-0.272,0.156 -0.537,0.319 -0.872,0.519c0.086,-0.168 0.135,-0.267 0.188,-0.365c0.691,-1.291 1.237,-2.635 1.534,-4.073c0.515,-2.495 0.164,-4.869 -0.994,-7.13c-0.188,-0.366 -0.403,-0.717 -0.605,-1.075c-0.04,-0.071 -0.081,-0.142 -0.158,-0.278c0.161,0.087 0.258,0.138 0.354,0.192c1.174,0.663 2.402,1.183 3.725,1.468c2.008,0.433 3.966,0.238 5.883,-0.472c1.043,-0.385 2.022,-0.899 2.961,-1.494c0.097,-0.061 0.195,-0.12 0.292,-0.18c0.014,0.014 0.027,0.029 0.041,0.043"></path><path style="fill:#171717;fill-rule:nonzero;" d="M29.724,28.538c0.182,0.099 0.298,0.16 0.413,0.225c1.241,0.696 2.544,1.228 3.948,1.493c1.863,0.351 3.678,0.156 5.454,-0.476c1.11,-0.394 2.145,-0.936 3.138,-1.565c0.087,-0.055 0.175,-0.11 0.303,-0.139c-0.051,0.096 -0.098,0.195 -0.153,0.289c-0.714,1.238 -1.315,2.526 -1.71,3.905c-0.846,2.954 -0.434,5.742 1.107,8.381c0.09,0.154 0.181,0.309 0.246,0.511c-0.087,-0.041 -0.177,-0.079 -0.263,-0.123c-1.183,-0.594 -2.405,-1.075 -3.703,-1.359c-2.532,-0.552 -4.951,-0.235 -7.259,0.935c-0.414,0.209 -0.809,0.455 -1.213,0.684c-0.069,0.04 -0.139,0.079 -0.268,0.151c0.082,-0.161 0.133,-0.261 0.185,-0.359c0.694,-1.3 1.244,-2.654 1.538,-4.105c0.504,-2.473 0.152,-4.827 -0.987,-7.069c-0.19,-0.376 -0.412,-0.736 -0.62,-1.103c-0.04,-0.07 -0.079,-0.141 -0.156,-0.276"></path><path style="fill:#171717;fill-rule:nonzero;" d="M49.763,0.19l14.043,0l0,14.981l30.135,0l0,-14.981l14.041,0l0,41.129l-14.041,0l0,-16.197l-30.135,0l0,16.197l-14.043,0l0,-41.129Z"></path><path style="fill:#171717;fill-rule:nonzero;" d="M162.545,0l-0,9.386l-33.546,-0l-0,6.108l32.757,-0l-0,9.443l-32.757,-0l-0,6.776l34.15,-0l-0,9.608l-48.075,0l-0,-41.321l47.471,0Z"></path><path style="fill:#171717;fill-rule:nonzero;" d="M185.126,0.151l28.693,25.93l0,-25.93l13.892,0l0,41.223l-13.892,0l-30.506,-27.314l0,27.314l-13.892,0l0,-41.223l15.705,0Z"></path><path style="fill:#171717;fill-rule:nonzero;" d="M250.819,0.151l28.692,25.93l-0,-25.93l13.893,0l0,41.223l-13.893,0l-30.506,-27.314l0,27.314l-13.891,0l0,-41.223l15.705,0Z"></path><path style="fill:#171717;fill-rule:nonzero;" d="M320.327,25.093l-23.733,-24.942l17.232,0l13.775,14.988l14.014,-14.988l15.684,0l-23.078,24.942l0,15.753l-13.894,0l0,-15.753Z"></path></svg>