<svg class="umf-logo" data-v-8e2d82fe="" height="58px" version="1.1" viewBox="0 0 115 58" width="115px" xmlns="http://www.w3.org/2000/svg" xmlns:xlink="http://www.w3.org/1999/xlink"><defs><path d="M3.29773952,47.8479238 C3.29773952,47.8116063 3.28615419,47.7818921 3.26330988,47.7586159 C3.24013922,47.7355048 3.18009132,47.7186667 3.08300299,47.7081016 L3.08300299,47.6151619 L4.6628503,47.6151619 L4.6628503,47.7081016 C4.56576198,47.7186667 4.5055509,47.7355048 4.48254341,47.7586159 C4.4596991,47.7818921 4.44811377,47.8116063 4.44811377,47.8479238 L4.44811377,49.9272635 C4.44811377,50.2684825 4.39312425,50.5555556 4.28330838,50.7884825 C4.17316617,51.0212444 4.02239371,51.207454 3.83082784,51.346946 C3.63893563,51.4867683 3.41391916,51.5836698 3.15577844,51.637981 C2.89763772,51.6922921 2.62285329,51.7193651 2.33142515,51.7193651 C2.03999701,51.7193651 1.7650494,51.6922921 1.50690868,51.637981 C1.24876796,51.5836698 1.0237515,51.4867683 0.832185629,51.346946 C0.640293413,51.207454 0.489520958,51.0212444 0.379541916,50.7884825 C0.269562874,50.5555556 0.214736527,50.2684825 0.214736527,49.9272635 L0.214736527,47.8479238 C0.214736527,47.8116063 0.203314371,47.7818921 0.180143713,47.7586159 C0.157136228,47.7355048 0.0970883234,47.7186667 0,47.7081016 L0,47.6151619 L1.57984731,47.6151619 L1.57984731,47.7081016 C1.48259581,47.7186667 1.4225479,47.7355048 1.39954042,47.7586159 C1.37669611,47.7818921 1.36511078,47.8116063 1.36511078,47.8479238 L1.36511078,49.9272635 C1.36511078,50.2272127 1.44947156,50.441981 1.61819311,50.571073 C1.78691467,50.7004952 2.02465868,50.7652063 2.33142515,50.7652063 C2.63819162,50.7652063 2.87593563,50.7004952 3.04465719,50.571073 C3.21337874,50.441981 3.29773952,50.2272127 3.29773952,49.9272635 L3.29773952,47.8479238" id="path-1"></path> <filter filterUnits="objectBoundingBox" height="343.7%" id="filter-2" width="314.5%" x="-107.2%" y="-97.5%"><feoffset dx="0" dy="1" in="SourceAlpha" result="shadowOffsetOuter1"></feoffset> <fegaussianblur in="shadowOffsetOuter1" result="shadowBlurOuter1" stddeviation="1.5"></fegaussianblur> <fecolormatrix in="shadowBlurOuter1" type="matrix" values="0 0 0 0 0.384313725   0 0 0 0 0.384313725   0 0 0 0 0.384313725  0 0 0 0.5 0"></fecolormatrix></filter> <path d="M6.15066766,47.8479238 C6.15066766,47.8116063 6.13924551,47.7818921 6.11607485,47.7586159 C6.09306737,47.7355048 6.03301946,47.7186667 5.93593114,47.7081016 L5.93593114,47.6151619 L7.7841991,47.6151619 L7.7841991,47.7081016 C7.69722754,47.7135492 7.63962725,47.7251048 7.61172455,47.7430984 C7.58349551,47.7614222 7.56946257,47.7833778 7.56946257,47.8091302 C7.56946257,47.8195302 7.60258683,47.8660825 7.66916168,47.9486222 C7.73557335,48.0314921 7.82254491,48.1348317 7.92991317,48.2589714 C8.03728144,48.3831111 8.15868263,48.5216127 8.29411677,48.674146 C8.4295509,48.8268444 8.56645359,48.9795429 8.7044985,49.1319111 C8.84254341,49.2844444 8.97536677,49.4293841 9.10329491,49.5664 C9.23105988,49.7034159 9.34103892,49.8212825 9.43306886,49.9195048 L9.43306886,47.8479238 C9.43306886,47.7599365 9.37938473,47.7135492 9.27201647,47.7081016 L9.27201647,47.6151619 L10.6754731,47.6151619 L10.6754731,47.7081016 C10.5782216,47.7186667 10.5181737,47.7355048 10.4951662,47.7586159 C10.4721587,47.7818921 10.4607365,47.8116063 10.4607365,47.8479238 L10.4607365,51.4634921 C10.4607365,51.4996444 10.4721587,51.5293587 10.4951662,51.5528 C10.5181737,51.5759111 10.5782216,51.5929143 10.6754731,51.6029841 L10.6754731,51.696254 L9.21833234,51.696254 L9.21833234,51.6029841 C9.2898024,51.6029841 9.33712275,51.5952254 9.36013024,51.579873 C9.38313772,51.5643556 9.39472305,51.5437206 9.39472305,51.5178032 C9.39472305,51.5022857 9.38705389,51.4828063 9.37171557,51.4595302 C9.35637725,51.436254 9.32308982,51.3963048 9.27201647,51.3393524 C9.22077994,51.2824 9.14539371,51.2010159 9.04569461,51.0948698 C8.94599551,50.9888889 8.81431437,50.8465905 8.65081437,50.6681397 C8.4871512,50.4896889 8.28514222,50.267327 8.0449506,50.0008889 C7.80459581,49.7346159 7.51577844,49.4100698 7.17833533,49.0272508 L7.17833533,51.4634921 C7.17833533,51.4996444 7.18975749,51.5293587 7.21276497,51.5528 C7.23577246,51.5759111 7.29582036,51.5929143 7.39307186,51.6029841 L7.39307186,51.696254 L5.93593114,51.696254 L5.93593114,51.6029841 C6.03301946,51.5929143 6.09306737,51.5759111 6.11607485,51.5528 C6.13924551,51.5293587 6.15066766,51.4996444 6.15066766,51.4634921 L6.15066766,47.8479238" id="path-3"></path> <filter filterUnits="objectBoundingBox" height="345.0%" id="filter-4" width="311.0%" x="-105.5%" y="-98.0%"><feoffset dx="0" dy="1" in="SourceAlpha" result="shadowOffsetOuter1"></feoffset> <fegaussianblur in="shadowOffsetOuter1" result="shadowBlurOuter1" stddeviation="1.5"></fegaussianblur> <fecolormatrix in="shadowBlurOuter1" type="matrix" values="0 0 0 0 0.384313725   0 0 0 0 0.384313725   0 0 0 0 0.384313725  0 0 0 0.5 0"></fecolormatrix></filter> <path d="M11.9868997,51.6029841 C12.083988,51.5929143 12.1440359,51.5759111 12.1670434,51.5528 C12.1900509,51.5293587 12.2016362,51.4996444 12.2016362,51.4634921 L12.2016362,47.8479238 C12.2016362,47.8116063 12.1900509,47.7818921 12.1670434,47.7586159 C12.1440359,47.7355048 12.083988,47.7186667 11.9868997,47.7081016 L11.9868997,47.6151619 L13.566747,47.6151619 L13.566747,47.7081016 C13.4694955,47.7186667 13.4094476,47.7355048 13.3864401,47.7586159 C13.3634326,47.7818921 13.3520105,47.8116063 13.3520105,47.8479238 L13.3520105,51.4634921 C13.3520105,51.4996444 13.3634326,51.5293587 13.3864401,51.5528 C13.4094476,51.5759111 13.4694955,51.5929143 13.566747,51.6029841 L13.566747,51.696254 L11.9868997,51.696254 L11.9868997,51.6029841" id="path-5"></path> <filter filterUnits="objectBoundingBox" height="345.0%" id="filter-6" width="733.0%" x="-316.5%" y="-98.0%"><feoffset dx="0" dy="1" in="SourceAlpha" result="shadowOffsetOuter1"></feoffset> <fegaussianblur in="shadowOffsetOuter1" result="shadowBlurOuter1" stddeviation="1.5"></fegaussianblur> <fecolormatrix in="shadowBlurOuter1" type="matrix" values="0 0 0 0 0.384313725   0 0 0 0 0.384313725   0 0 0 0 0.384313725  0 0 0 0.5 0"></fecolormatrix></filter> <path d="M16.0590614,51.6029841 C16.1050763,51.5929143 16.135753,51.5825143 16.1510913,51.5721143 C16.1664296,51.5617143 16.174262,51.5488381 16.174262,51.5331556 C16.174262,51.5229206 16.1537021,51.4700952 16.1129087,51.3741841 C16.0717889,51.2784381 16.0194102,51.1531429 15.9556093,50.9978032 C15.8916452,50.8427937 15.816259,50.6669841 15.7294506,50.4703746 C15.6423159,50.2737651 15.5542021,50.0695619 15.4647829,49.8574349 C15.3753638,49.6453079 15.284476,49.4358222 15.1924461,49.2288127 C15.1005793,49.0219683 15.0160554,48.8306413 14.9395269,48.6548317 C14.8626722,48.4788571 14.7975659,48.3264889 14.7438817,48.1969016 C14.6901976,48.0678095 14.652994,47.977181 14.6325973,47.9255111 C14.5968623,47.8376889 14.5686332,47.7807365 14.5482365,47.754819 C14.5278398,47.7289016 14.4971632,47.7135492 14.4562066,47.7081016 L14.4562066,47.6151619 L16.0285479,47.6151619 L16.0285479,47.7081016 C15.9671946,47.7135492 15.9260749,47.723619 15.9058413,47.7393016 C15.8852814,47.754819 15.8751647,47.775619 15.8751647,47.8013714 C15.8751647,47.8168889 15.8865868,47.8492444 15.9095943,47.898273 C15.9326018,47.9476317 15.9812275,48.052127 16.0553084,48.2125841 C16.1293892,48.3728762 16.2367575,48.6056381 16.3774132,48.9108698 C16.5179057,49.2161016 16.7083293,49.6324317 16.9488473,50.1600254 C17.178759,49.6477841 17.3615135,49.2405333 17.4971108,48.9379429 C17.6325449,48.6355175 17.7373024,48.4039111 17.8115464,48.243619 C17.8856272,48.083327 17.9329476,47.9733841 17.9533443,47.9139556 C17.973741,47.8543619 17.984021,47.8142476 17.984021,47.7936127 C17.984021,47.7676952 17.9763518,47.748381 17.9610135,47.7355048 C17.9456751,47.7224635 17.9151617,47.7135492 17.8689835,47.7081016 L17.8689835,47.6151619 L19.1880793,47.6151619 L19.1880793,47.7081016 C19.1574027,47.7186667 19.1330898,47.7289016 19.1153039,47.7393016 C19.0973548,47.7495365 19.0833219,47.7729778 19.0732051,47.8091302 C19.062762,47.84 19.0320853,47.9151111 18.981012,48.0341333 C18.9299386,48.1531556 18.8672799,48.3004063 18.7931991,48.476381 C18.7189551,48.6521905 18.6372051,48.8476444 18.5477859,49.0622476 C18.4582036,49.2766857 18.3661737,49.4954159 18.2716961,49.7176127 C18.1770554,49.9401397 18.0850254,50.1573841 17.9956063,50.3695111 C17.906024,50.5816381 17.8268847,50.7703238 17.7578623,50.9357333 C17.6888398,51.101473 17.6338503,51.2383238 17.5928937,51.346946 C17.5519371,51.4557333 17.5315404,51.5151619 17.5315404,51.5253968 C17.5315404,51.5721143 17.5672754,51.5952254 17.6390719,51.5952254 L17.6390719,51.696254 L16.0590614,51.696254 L16.0590614,51.6029841" id="path-7"></path> <filter filterUnits="objectBoundingBox" height="345.0%" id="filter-8" width="311.3%" x="-105.7%" y="-98.0%"><feoffset dx="0" dy="1" in="SourceAlpha" result="shadowOffsetOuter1"></feoffset> <fegaussianblur in="shadowOffsetOuter1" result="shadowBlurOuter1" stddeviation="1.5"></fegaussianblur> <fecolormatrix in="shadowBlurOuter1" type="matrix" values="0 0 0 0 0.384313725   0 0 0 0 0.384313725   0 0 0 0 0.384313725  0 0 0 0.5 0"></fecolormatrix></filter> <path d="M23.0226602,50.2064127 C23.0123802,50.1549079 22.9906781,50.1121524 22.9573907,50.0784762 C22.9241033,50.0449651 22.8692769,50.0279619 22.7925853,50.0279619 L21.3661213,50.0279619 L21.3661213,50.7495238 L23.8279222,50.7495238 C23.8687156,50.7495238 23.8993922,50.735327 23.9199521,50.7069333 C23.9403488,50.6787048 23.9556871,50.6151492 23.9659671,50.516927 L24.057997,50.516927 L24.057997,51.8435048 L23.9659671,51.8435048 C23.9556871,51.7763175 23.9403488,51.7350476 23.9199521,51.7193651 C23.8993922,51.7040127 23.8687156,51.696254 23.8279222,51.696254 L20.0010105,51.696254 L20.0010105,51.6029841 C20.0980988,51.5929143 20.1583099,51.5759111 20.1813174,51.5528 C20.2043249,51.5293587 20.215747,51.4996444 20.215747,51.4634921 L20.215747,47.8479238 C20.215747,47.8116063 20.2043249,47.7818921 20.1813174,47.7586159 C20.1583099,47.7355048 20.0980988,47.7186667 20.0010105,47.7081016 L20.0010105,47.6151619 L23.8279222,47.6151619 C23.8687156,47.6151619 23.8993922,47.6009651 23.9199521,47.5724063 C23.9403488,47.5440127 23.9556871,47.4859048 23.9659671,47.3979175 L24.057997,47.3979175 L24.057997,48.7477714 L23.9659671,48.7477714 C23.9556871,48.6599492 23.9403488,48.6018413 23.9199521,48.5732825 C23.8993922,48.545054 23.8687156,48.5306921 23.8279222,48.5306921 L21.3661213,48.5306921 L21.3661213,49.1745016 L22.7925853,49.1745016 C22.8692769,49.1745016 22.9241033,49.1579937 22.9573907,49.1243175 C22.9906781,49.0904762 23.0123802,49.0480508 23.0226602,48.9960508 L23.1146901,48.9960508 L23.1146901,50.2064127 L23.0226602,50.2064127" id="path-9"></path> <filter filterUnits="objectBoundingBox" height="324.9%" id="filter-10" width="346.5%" x="-123.2%" y="-90.0%"><feoffset dx="0" dy="1" in="SourceAlpha" result="shadowOffsetOuter1"></feoffset> <fegaussianblur in="shadowOffsetOuter1" result="shadowBlurOuter1" stddeviation="1.5"></fegaussianblur> <fecolormatrix in="shadowBlurOuter1" type="matrix" values="0 0 0 0 0.384313725   0 0 0 0 0.384313725   0 0 0 0 0.384313725  0 0 0 0.5 0"></fecolormatrix></filter> <path d="M27.7698713,49.3376 C27.9947246,49.3376 28.1494132,49.2948444 28.233774,49.2094984 C28.3181347,49.1243175 28.3603967,49.0246095 28.3603967,48.9108698 C28.3603967,48.7971302 28.3181347,48.6975873 28.233774,48.6120762 C28.1494132,48.5267302 27.9947246,48.4841397 27.7698713,48.4841397 L26.4814521,48.4841397 L26.4814521,49.3376 L27.7698713,49.3376 Z M26.4814521,51.4634921 C26.4814521,51.4996444 26.4928743,51.5293587 26.5158817,51.5528 C26.5388892,51.5759111 26.5989371,51.5929143 26.6960254,51.6029841 L26.6960254,51.696254 L25.1163413,51.696254 L25.1163413,51.6029841 C25.2134296,51.5929143 25.2734775,51.5759111 25.296485,51.5528 C25.3194925,51.5293587 25.3310778,51.4996444 25.3310778,51.4634921 L25.3310778,47.8479238 C25.3310778,47.8116063 25.3194925,47.7818921 25.296485,47.7586159 C25.2734775,47.7355048 25.2134296,47.7186667 25.1163413,47.7081016 L25.1163413,47.6151619 L27.9230913,47.6151619 C28.4907725,47.6151619 28.9021332,47.7198222 29.1579895,47.9293079 C29.4135195,48.1387937 29.5412844,48.4635048 29.5412844,48.9031111 C29.5412844,49.2600127 29.4378323,49.5391619 29.230765,49.741054 C29.0236976,49.942781 28.7616407,50.0877206 28.4447575,50.1755429 L29.3497186,51.4634921 C29.4110719,51.5565968 29.4851527,51.6029841 29.5719611,51.6029841 L29.5719611,51.696254 L27.9769386,51.696254 L27.9769386,51.6029841 C28.0893653,51.5980317 28.1456602,51.5514794 28.1456602,51.4634921 C28.1456602,51.4530921 28.1251003,51.4167746 28.0843069,51.3547048 C28.0431871,51.2926349 27.9922769,51.217854 27.9309237,51.1298667 C27.8695704,51.0418794 27.8016901,50.947619 27.7276093,50.8465905 C27.6535284,50.745727 27.5818952,50.6488254 27.5128728,50.5555556 C27.4438503,50.4626159 27.3836392,50.3799111 27.332729,50.3074413 C27.2814925,50.2349714 27.2483683,50.1859429 27.2330299,50.1600254 L26.4814521,50.1600254 L26.4814521,51.4634921 Z" id="path-11"></path> <filter filterUnits="objectBoundingBox" height="345.0%" id="filter-12" width="324.4%" x="-112.2%" y="-98.0%"><feoffset dx="0" dy="1" in="SourceAlpha" result="shadowOffsetOuter1"></feoffset> <fegaussianblur in="shadowOffsetOuter1" result="shadowBlurOuter1" stddeviation="1.5"></fegaussianblur> <fecolormatrix in="shadowBlurOuter1" type="matrix" values="0 0 0 0 0.384313725   0 0 0 0 0.384313725   0 0 0 0 0.384313725  0 0 0 0.5 0"></fecolormatrix></filter> <path d="M30.990756,50.1212317 C30.980476,50.1522667 30.9754177,50.2064127 30.9754177,50.2841651 C30.9754177,50.3358349 31.0225749,50.3941079 31.1172156,50.458819 C31.2118563,50.5233651 31.3345629,50.5841143 31.4854985,50.6410667 C31.6361078,50.698019 31.8087455,50.745727 32.0030853,50.7845206 C32.197262,50.8234794 32.3942126,50.8427937 32.5936108,50.8427937 C32.9770689,50.8427937 33.2582171,50.7973968 33.4372186,50.7069333 C33.6160569,50.6166349 33.7056392,50.4858921 33.7056392,50.3150349 C33.7056392,50.2220952 33.6276422,50.1562286 33.4716482,50.1172698 C33.3156542,50.0784762 33.1201722,50.0474413 32.8850389,50.0241651 C32.6497425,50.0008889 32.3966602,49.9751365 32.1257919,49.9465778 C31.8547605,49.9181841 31.601515,49.8665143 31.3665449,49.7915683 C31.1312485,49.7164571 30.9357665,49.6078349 30.7797725,49.4655365 C30.6237784,49.3234032 30.5459446,49.1281143 30.5459446,48.8798349 C30.5459446,48.6833905 30.5906542,48.5049397 30.6800734,48.3444825 C30.7694925,48.1841905 30.8948099,48.0470095 31.0558623,47.9332698 C31.2170778,47.8195302 31.4125599,47.7302222 31.6426347,47.6656762 C31.8727096,47.6009651 32.1282395,47.5686095 32.4095509,47.5686095 C32.6703024,47.5686095 32.9131048,47.5852825 33.1381213,47.6189587 C33.3629746,47.6528 33.5623728,47.6901079 33.7363159,47.7315429 C33.9099326,47.7729778 34.0556467,47.8104508 34.1734581,47.8439619 C34.2909431,47.8778032 34.3753039,47.8943111 34.4265404,47.8943111 C34.4774506,47.8943111 34.5185704,47.8827556 34.549247,47.8594794 C34.5799237,47.8362032 34.6079895,47.8091302 34.6336078,47.7779302 L34.7179686,47.8091302 L34.1887964,48.8875937 L34.0967665,48.8410413 L34.0967665,48.7555302 C34.0967665,48.7091429 34.0468353,48.6612698 33.9471362,48.6120762 C33.8474371,48.5630476 33.7209775,48.5191365 33.5675943,48.4801778 C33.4142111,48.4413841 33.2428787,48.4091937 33.0537605,48.3831111 C32.864479,48.3573587 32.6804192,48.3444825 32.5015808,48.3444825 C32.1690329,48.3444825 31.9365105,48.3831111 31.8036871,48.4608635 C31.6707006,48.5384508 31.6042889,48.6213206 31.6042889,48.7091429 C31.6042889,48.7971302 31.6503039,48.8631619 31.7423338,48.9069079 C31.8343638,48.9509841 31.9544596,48.9833397 32.1027844,49.0039746 C32.2509461,49.0246095 32.4196677,49.0416127 32.6089491,49.0543238 C32.7979042,49.0673651 32.9924072,49.0866794 33.1918054,49.1124317 C33.3912036,49.1385143 33.5853802,49.1745016 33.7746617,49.221219 C33.9637799,49.2677714 34.1325015,49.3364444 34.2808263,49.4269079 C34.428988,49.5172063 34.549247,49.6362286 34.6412769,49.7836444 C34.7333069,49.9310603 34.7793219,50.1159492 34.7793219,50.3384762 C34.7793219,50.5090032 34.744729,50.677219 34.6757066,50.8427937 C34.6066841,51.0083683 34.4890359,51.1569397 34.3229251,51.2888381 C34.1568144,51.4207365 33.9344087,51.5253968 33.6557081,51.6029841 C33.3770075,51.6807365 33.030753,51.7193651 32.6166183,51.7193651 C32.2945135,51.7193651 32.0171183,51.7040127 31.7844326,51.6729778 C31.551747,51.6419429 31.3536542,51.6044698 31.1901542,51.5603937 C31.026491,51.5166476 30.8974207,51.4765333 30.8027799,51.4402159 C30.7081392,51.4040635 30.6379746,51.3859048 30.5919596,51.3859048 C30.5612829,51.3859048 30.5343593,51.3963048 30.5113518,51.4167746 C30.4883443,51.4375746 30.4640314,51.4608508 30.4385763,51.4867683 L30.3465464,51.4634921 L30.9140644,50.082273 L30.990756,50.1212317" id="path-13"></path> <filter filterUnits="objectBoundingBox" height="340.9%" id="filter-14" width="325.6%" x="-112.8%" y="-96.4%"><feoffset dx="0" dy="1" in="SourceAlpha" result="shadowOffsetOuter1"></feoffset> <fegaussianblur in="shadowOffsetOuter1" result="shadowBlurOuter1" stddeviation="1.5"></fegaussianblur> <fecolormatrix in="shadowBlurOuter1" type="matrix" values="0 0 0 0 0.384313725   0 0 0 0 0.384313725   0 0 0 0 0.384313725  0 0 0 0.5 0"></fecolormatrix></filter> <path d="M38.5447171,50.1910603 L37.8009716,48.3444825 L37.1184162,50.1910603 L38.5447171,50.1910603 Z M36.6811108,51.5253968 C36.6811108,51.5514794 36.6900853,51.5707937 36.7080344,51.5836698 C36.7258204,51.5967111 36.7628608,51.6029841 36.8193189,51.6029841 L36.8193189,51.696254 L35.4617141,51.696254 L35.4617141,51.6029841 C35.518009,51.5929143 35.5588024,51.5759111 35.5845838,51.5528 C35.6100389,51.5293587 35.635494,51.4867683 35.6611123,51.4246984 C35.6713922,51.398781 35.6968473,51.3289524 35.7379671,51.2152127 C35.7787605,51.101473 35.8324446,50.957854 35.8988563,50.7845206 C35.965268,50.6111873 36.039512,50.4185397 36.1214251,50.2064127 C36.203012,49.9944508 36.2849251,49.778527 36.3668383,49.5586413 C36.4484251,49.3387556 36.5290329,49.1243175 36.6083353,48.9146667 C36.6874746,48.705346 36.7579656,48.5178159 36.8193189,48.3522413 C36.8806722,48.1866667 36.9304401,48.052127 36.9687859,47.9486222 C37.0071317,47.8454476 37.0263862,47.7909714 37.0263862,47.7856889 C37.0263862,47.7599365 37.0097425,47.7419429 36.9764551,47.7315429 C36.9431677,47.7213079 36.9085749,47.7135492 36.873003,47.7081016 L36.873003,47.6151619 L38.874491,47.6151619 L38.874491,47.7081016 C38.8335344,47.7135492 38.8004102,47.7213079 38.7747919,47.7315429 C38.7491737,47.7419429 38.7366093,47.7676952 38.7366093,47.8091302 C38.7366093,47.8195302 38.760759,47.8867175 38.8093847,48.0106921 C38.8578473,48.1348317 38.920506,48.2966095 38.9973608,48.4956952 C39.0738892,48.694946 39.1621662,48.9197841 39.2618653,49.1707048 C39.3615644,49.4216254 39.4650165,49.6776635 39.5725479,49.938819 C39.679753,50.2001397 39.7833683,50.4548571 39.8830674,50.7031365 C39.9827665,50.9514159 40.073491,51.1739429 40.155241,51.3703873 C40.1961976,51.4634921 40.2306272,51.5253968 40.2588563,51.5565968 C40.2869222,51.5874667 40.3241257,51.6029841 40.3699775,51.6029841 L40.3699775,51.696254 L38.8591527,51.696254 L38.8591527,51.6029841 C38.956241,51.5980317 39.0050299,51.5668317 39.0050299,51.5100444 C39.0050299,51.5047619 38.9921392,51.4700952 38.966521,51.405219 C38.9409027,51.3405079 38.913,51.2682032 38.8823234,51.1881397 C38.8516467,51.1079111 38.8221123,51.0316444 38.7940464,50.9591746 C38.7658174,50.8867048 38.7491737,50.8375111 38.7441153,50.8115937 L36.926524,50.8115937 C36.8754506,50.9514159 36.834494,51.0651556 36.8038174,51.1531429 C36.7731407,51.2411302 36.7488278,51.3109587 36.7310419,51.3624635 C36.7130928,51.4144635 36.7003653,51.4517714 36.6926961,51.4750476 C36.6850269,51.4983238 36.6811108,51.5151619 36.6811108,51.5253968 Z" id="path-15"></path> <filter filterUnits="objectBoundingBox" height="345.0%" id="filter-16" width="303.7%" x="-101.9%" y="-98.0%"><feoffset dx="0" dy="1" in="SourceAlpha" result="shadowOffsetOuter1"></feoffset> <fegaussianblur in="shadowOffsetOuter1" result="shadowBlurOuter1" stddeviation="1.5"></fegaussianblur> <fecolormatrix in="shadowBlurOuter1" type="matrix" values="0 0 0 0 0.384313725   0 0 0 0 0.384313725   0 0 0 0 0.384313725  0 0 0 0.5 0"></fecolormatrix></filter> <path d="M45.3087545,50.7495238 C45.3497111,50.7495238 45.3803877,50.735327 45.4007844,50.7069333 C45.4211811,50.6787048 45.4366826,50.6204317 45.4469626,50.5324444 L45.5389925,50.5324444 L45.5389925,51.8747048 L45.4469626,51.8747048 C45.4366826,51.7918349 45.4211811,51.7413206 45.4007844,51.723327 C45.3803877,51.7051683 45.3497111,51.696254 45.3087545,51.696254 L41.3056153,51.696254 L41.3056153,51.6029841 C41.4025404,51.5929143 41.4627515,51.5759111 41.485759,51.5528 C41.5087665,51.5293587 41.5203518,51.4996444 41.5203518,51.4634921 L41.5203518,47.8479238 C41.5203518,47.8116063 41.5087665,47.7818921 41.485759,47.7586159 C41.4627515,47.7355048 41.4025404,47.7186667 41.3056153,47.7081016 L41.3056153,47.6151619 L42.8852994,47.6151619 L42.8852994,47.7081016 C42.7882111,47.7186667 42.7281632,47.7355048 42.7051557,47.7586159 C42.6821482,47.7818921 42.6705629,47.8116063 42.6705629,47.8479238 L42.6705629,50.7495238 L45.3087545,50.7495238" id="path-17"></path> <filter filterUnits="objectBoundingBox" height="334.8%" id="filter-18" width="336.2%" x="-118.1%" y="-93.9%"><feoffset dx="0" dy="1" in="SourceAlpha" result="shadowOffsetOuter1"></feoffset> <fegaussianblur in="shadowOffsetOuter1" result="shadowBlurOuter1" stddeviation="1.5"></fegaussianblur> <fecolormatrix in="shadowBlurOuter1" type="matrix" values="0 0 0 0 0.384313725   0 0 0 0 0.384313725   0 0 0 0 0.384313725  0 0 0 0.5 0"></fecolormatrix></filter> <path d="M52.3950599,51.6029841 C52.491985,51.5929143 52.5521961,51.5759111 52.5752036,51.5528 C52.5982111,51.5293587 52.6097964,51.4996444 52.6097964,51.4634921 L52.6097964,48.6082794 L52.5944581,48.5927619 L51.2293473,51.6029841 L49.8795749,48.5615619 L49.8642365,48.5615619 L49.8642365,51.4634921 C49.8642365,51.4996444 49.8756587,51.5293587 49.8986662,51.5528 C49.9216737,51.5759111 49.9817216,51.5929143 50.0789731,51.6029841 L50.0789731,51.696254 L48.7292006,51.696254 L48.7292006,51.6029841 C48.8262889,51.5929143 48.8863368,51.5759111 48.9093443,51.5528 C48.9323518,51.5293587 48.9439371,51.4996444 48.9439371,51.4634921 L48.9439371,47.8479238 C48.9439371,47.8116063 48.9323518,47.7818921 48.9093443,47.7586159 C48.8863368,47.7355048 48.8262889,47.7186667 48.7292006,47.7081016 L48.7292006,47.6151619 L50.7308518,47.6151619 L50.7308518,47.7081016 C50.607982,47.7135492 50.5466287,47.7599365 50.5466287,47.8479238 C50.5466287,47.8530413 50.5621302,47.8943111 50.5928069,47.9720635 C50.6234835,48.0496508 50.6629716,48.1453968 50.7115973,48.2589714 C50.7602231,48.3728762 50.8139072,48.4956952 50.8726497,48.6275937 C50.9313922,48.7596571 50.9876871,48.886273 51.0413713,49.0079365 C51.0950554,49.1294349 51.1422126,49.2365714 51.1833323,49.3298413 C51.2241257,49.422781 51.2523548,49.4850159 51.2675299,49.5160508 C51.3545015,49.3194413 51.4439207,49.1281143 51.5359506,48.9419048 C51.6279805,48.7555302 51.7111991,48.5850032 51.7852799,48.4298286 C51.8593608,48.274654 51.9195719,48.1453968 51.9655868,48.0418921 C52.0116018,47.9383873 52.0346093,47.8736762 52.0346093,47.8479238 C52.0346093,47.7599365 51.973256,47.7135492 51.8505494,47.7081016 L51.8505494,47.6151619 L53.9288922,47.6151619 L53.9288922,47.7081016 C53.8316407,47.7186667 53.7715928,47.7355048 53.7485853,47.7586159 C53.7255778,47.7818921 53.7141557,47.8116063 53.7141557,47.8479238 L53.7141557,51.4634921 C53.7141557,51.4996444 53.7255778,51.5293587 53.7485853,51.5528 C53.7715928,51.5759111 53.8316407,51.5929143 53.9288922,51.6029841 L53.9288922,51.696254 L52.3950599,51.696254 L52.3950599,51.6029841" id="path-19"></path> <filter filterUnits="objectBoundingBox" height="345.0%" id="filter-20" width="292.3%" x="-96.2%" y="-98.0%"><feoffset dx="0" dy="1" in="SourceAlpha" result="shadowOffsetOuter1"></feoffset> <fegaussianblur in="shadowOffsetOuter1" result="shadowBlurOuter1" stddeviation="1.5"></fegaussianblur> <fecolormatrix in="shadowBlurOuter1" type="matrix" values="0 0 0 0 0.384313725   0 0 0 0 0.384313725   0 0 0 0 0.384313725  0 0 0 0.5 0"></fecolormatrix></filter> <path d="M58.4765419,47.8479238 C58.4765419,47.8116063 58.4651198,47.7818921 58.4419491,47.7586159 C58.4191048,47.7355048 58.3587305,47.7186667 58.2618054,47.7081016 L58.2618054,47.6151619 L59.8416527,47.6151619 L59.8416527,47.7081016 C59.7445644,47.7186667 59.6843533,47.7355048 59.661509,47.7586159 C59.6383383,47.7818921 59.6269162,47.8116063 59.6269162,47.8479238 L59.6269162,49.9272635 C59.6269162,50.2684825 59.5719266,50.5555556 59.4619476,50.7884825 C59.3519686,51.0212444 59.2013593,51.207454 59.0096302,51.346946 C58.8179012,51.4867683 58.5927216,51.5836698 58.334744,51.637981 C58.0764401,51.6922921 57.8016557,51.7193651 57.5102275,51.7193651 C57.2187994,51.7193651 56.944015,51.6922921 56.6858743,51.637981 C56.4275704,51.5836698 56.2027171,51.4867683 56.010988,51.346946 C55.819259,51.207454 55.6683234,51.0212444 55.5583443,50.7884825 C55.4485284,50.5555556 55.3935389,50.2684825 55.3935389,49.9272635 L55.3935389,47.8479238 C55.3935389,47.8116063 55.3819536,47.7818921 55.3591093,47.7586159 C55.3361018,47.7355048 55.2758907,47.7186667 55.1788024,47.7081016 L55.1788024,47.6151619 L56.7586497,47.6151619 L56.7586497,47.7081016 C56.6613982,47.7186667 56.6015135,47.7355048 56.5783428,47.7586159 C56.5554985,47.7818921 56.5439132,47.8116063 56.5439132,47.8479238 L56.5439132,49.9272635 C56.5439132,50.2272127 56.628274,50.441981 56.7969955,50.571073 C56.9657171,50.7004952 57.2034611,50.7652063 57.5102275,50.7652063 C57.816994,50.7652063 58.054738,50.7004952 58.2234596,50.571073 C58.3923443,50.441981 58.4765419,50.2272127 58.4765419,49.9272635 L58.4765419,47.8479238" id="path-21"></path> <filter filterUnits="objectBoundingBox" height="343.7%" id="filter-22" width="314.5%" x="-107.2%" y="-97.5%"><feoffset dx="0" dy="1" in="SourceAlpha" result="shadowOffsetOuter1"></feoffset> <fegaussianblur in="shadowOffsetOuter1" result="shadowBlurOuter1" stddeviation="1.5"></fegaussianblur> <fecolormatrix in="shadowBlurOuter1" type="matrix" values="0 0 0 0 0.384313725   0 0 0 0 0.384313725   0 0 0 0 0.384313725  0 0 0 0.5 0"></fecolormatrix></filter> <path d="M61.4521766,50.1212317 C61.4418967,50.1522667 61.4370015,50.2064127 61.4370015,50.2841651 C61.4370015,50.3358349 61.4841587,50.3941079 61.5787994,50.458819 C61.6732769,50.5233651 61.7959835,50.5841143 61.9469192,50.6410667 C62.0976916,50.698019 62.2701662,50.745727 62.4646692,50.7845206 C62.6588458,50.8234794 62.8556332,50.8427937 63.0551946,50.8427937 C63.4384895,50.8427937 63.7196377,50.7973968 63.8988024,50.7069333 C64.0776407,50.6166349 64.1670599,50.4858921 64.1670599,50.3150349 C64.1670599,50.2220952 64.089226,50.1562286 63.933232,50.1172698 C63.7770749,50.0784762 63.5815928,50.0474413 63.3466228,50.0241651 C63.1111632,50.0008889 62.858244,49.9751365 62.5873757,49.9465778 C62.3161811,49.9181841 62.063262,49.8665143 61.8279656,49.7915683 C61.5928323,49.7164571 61.3973503,49.6078349 61.2411931,49.4655365 C61.0851991,49.3234032 61.0075284,49.1281143 61.0075284,48.8798349 C61.0075284,48.6833905 61.0520749,48.5049397 61.1416572,48.3444825 C61.2310763,48.1841905 61.3563937,48.0470095 61.5174461,47.9332698 C61.6784985,47.8195302 61.8739805,47.7302222 62.1042186,47.6656762 C62.3342934,47.6009651 62.5898234,47.5686095 62.8711347,47.5686095 C63.1317231,47.5686095 63.3746886,47.5852825 63.5997051,47.6189587 C63.8245584,47.6528 64.0239566,47.6901079 64.1978997,47.7315429 C64.3715165,47.7729778 64.5173937,47.8104508 64.6348787,47.8439619 C64.7525269,47.8778032 64.8368877,47.8943111 64.8879611,47.8943111 C64.9391976,47.8943111 64.9801542,47.8827556 65.0106677,47.8594794 C65.0415075,47.8362032 65.0694102,47.8091302 65.0951916,47.7779302 L65.1793892,47.8091302 L64.6502171,48.8875937 L64.5583503,48.8410413 L64.5583503,48.7555302 C64.5583503,48.7091429 64.5084192,48.6612698 64.4087201,48.6120762 C64.309021,48.5630476 64.1825614,48.5191365 64.029015,48.4801778 C63.8756317,48.4413841 63.7042994,48.4091937 63.5151811,48.3831111 C63.3260629,48.3573587 63.142003,48.3444825 62.9630015,48.3444825 C62.6306168,48.3444825 62.3980943,48.3831111 62.265271,48.4608635 C62.1321213,48.5384508 62.0657096,48.6213206 62.0657096,48.7091429 C62.0657096,48.7971302 62.1117246,48.8631619 62.2039177,48.9069079 C62.2957844,48.9509841 62.4160434,48.9833397 62.5643683,49.0039746 C62.7125299,49.0246095 62.8812515,49.0416127 63.0703698,49.0543238 C63.2596512,49.0673651 63.4538278,49.0866794 63.6533892,49.1124317 C63.8526243,49.1385143 64.0469641,49.1745016 64.2360823,49.221219 C64.4252006,49.2677714 64.5939222,49.3364444 64.7424102,49.4269079 C64.8905719,49.5172063 65.0106677,49.6362286 65.1028608,49.7836444 C65.1947275,49.9310603 65.2407425,50.1159492 65.2407425,50.3384762 C65.2407425,50.5090032 65.2063129,50.677219 65.1372904,50.8427937 C65.068268,51.0083683 64.9506198,51.1569397 64.784509,51.2888381 C64.6183982,51.4207365 64.3958293,51.5253968 64.1171287,51.6029841 C63.8384281,51.6807365 63.4921737,51.7193651 63.0780389,51.7193651 C62.7560973,51.7193651 62.4785389,51.7040127 62.2460165,51.6729778 C62.0133308,51.6419429 61.815238,51.6044698 61.6515749,51.5603937 C61.4879117,51.5166476 61.3588413,51.4765333 61.2643638,51.4402159 C61.1697231,51.4040635 61.0993952,51.3859048 61.0533802,51.3859048 C61.0228668,51.3859048 60.9959431,51.3963048 60.9729356,51.4167746 C60.9499281,51.4375746 60.9256153,51.4608508 60.9001602,51.4867683 L60.8079671,51.4634921 L61.3756482,50.082273 L61.4521766,50.1212317" id="path-23"></path> <filter filterUnits="objectBoundingBox" height="340.9%" id="filter-24" width="325.6%" x="-112.8%" y="-96.4%"><feoffset dx="0" dy="1" in="SourceAlpha" result="shadowOffsetOuter1"></feoffset> <fegaussianblur in="shadowOffsetOuter1" result="shadowBlurOuter1" stddeviation="1.5"></fegaussianblur> <fecolormatrix in="shadowBlurOuter1" type="matrix" values="0 0 0 0 0.384313725   0 0 0 0 0.384313725   0 0 0 0 0.384313725  0 0 0 0.5 0"></fecolormatrix></filter> <path d="M66.3144251,51.6029841 C66.4115135,51.5929143 66.4715614,51.5759111 66.494732,51.5528 C66.5175763,51.5293587 66.5291617,51.4996444 66.5291617,51.4634921 L66.5291617,47.8479238 C66.5291617,47.8116063 66.5175763,47.7818921 66.494732,47.7586159 C66.4715614,47.7355048 66.4115135,47.7186667 66.3144251,47.7081016 L66.3144251,47.6151619 L67.8942725,47.6151619 L67.8942725,47.7081016 C67.797021,47.7186667 67.7371362,47.7355048 67.7139656,47.7586159 C67.6911213,47.7818921 67.6796991,47.8116063 67.6796991,47.8479238 L67.6796991,51.4634921 C67.6796991,51.4996444 67.6911213,51.5293587 67.7139656,51.5528 C67.7371362,51.5759111 67.797021,51.5929143 67.8942725,51.6029841 L67.8942725,51.696254 L66.3144251,51.696254 L66.3144251,51.6029841" id="path-25"></path> <filter filterUnits="objectBoundingBox" height="345.0%" id="filter-26" width="733.0%" x="-316.5%" y="-98.0%"><feoffset dx="0" dy="1" in="SourceAlpha" result="shadowOffsetOuter1"></feoffset> <fegaussianblur in="shadowOffsetOuter1" result="shadowBlurOuter1" stddeviation="1.5"></fegaussianblur> <fecolormatrix in="shadowBlurOuter1" type="matrix" values="0 0 0 0 0.384313725   0 0 0 0 0.384313725   0 0 0 0 0.384313725  0 0 0 0.5 0"></fecolormatrix></filter> <path d="M72.8868967,49.0660444 C72.8917919,49.0503619 72.8955449,49.033854 72.8983189,49.0155302 C72.9009296,48.9975365 72.9020719,48.975581 72.9020719,48.9496635 C72.9020719,48.9082286 72.867479,48.8669587 72.7986198,48.8255238 C72.7295973,48.7840889 72.6375674,48.7466159 72.5225299,48.7129397 C72.4074925,48.6792635 72.2758114,48.6508698 72.1274865,48.6275937 C71.9791617,48.6043175 71.8233308,48.5927619 71.6596677,48.5927619 C71.5064476,48.5927619 71.345232,48.6109206 71.1765105,48.647073 C71.0077889,48.6833905 70.8531003,48.742819 70.7124446,48.8255238 C70.5719521,48.9082286 70.4569147,49.0181714 70.3674955,49.1551873 C70.2779132,49.2923683 70.2332036,49.4590984 70.2332036,49.6555429 C70.2332036,49.8523175 70.2779132,50.0190476 70.3674955,50.1562286 C70.4569147,50.2932444 70.5719521,50.4031873 70.7124446,50.4858921 C70.8531003,50.5687619 71.0077889,50.6281905 71.1765105,50.6643429 C71.345232,50.7004952 71.5064476,50.718654 71.6596677,50.718654 C71.7260793,50.718654 71.831,50.7069333 71.9741033,50.6836571 C72.1172066,50.660381 72.2604731,50.6281905 72.4037395,50.5867556 C72.5468428,50.5453206 72.6733024,50.4987683 72.7832814,50.4469333 C72.8932605,50.3954286 72.94825,50.3411175 72.94825,50.2841651 C72.94825,50.2584127 72.9428653,50.2376127 72.9327485,50.2220952 C72.9224686,50.2064127 72.9123518,50.188419 72.9020719,50.1677841 L72.9864326,50.113473 L73.7765195,51.3315937 L73.6843263,51.3859048 C73.6740464,51.3601524 73.6600135,51.3431492 73.6422275,51.3353905 C73.6241153,51.3276317 73.6024132,51.3238349 73.5769581,51.3238349 C73.5410599,51.3238349 73.4695898,51.3459556 73.3623847,51.3897016 C73.2548533,51.4337778 73.115503,51.4803302 72.9443338,51.5293587 C72.7728383,51.5787175 72.5722979,51.6224635 72.3423862,51.6612571 C72.1123114,51.7000508 71.8540075,51.7193651 71.5678009,51.7193651 C71.2610344,51.7193651 70.9567156,51.6794159 70.6550075,51.5991873 C70.3532994,51.5189587 70.0824311,51.3923429 69.8420763,51.2190095 C69.6017216,51.0458413 69.4073817,50.8285968 69.2592201,50.5672762 C69.1108952,50.3062857 69.0368144,50.0022095 69.0368144,49.6555429 C69.0368144,49.3092063 69.1108952,49.0052952 69.2592201,48.7439746 C69.4073817,48.482819 69.6017216,48.2655746 69.8420763,48.0924063 C70.0824311,47.919073 70.3532994,47.7884952 70.6550075,47.7005079 C70.9567156,47.6125206 71.2610344,47.5686095 71.5678009,47.5686095 C71.8745674,47.5686095 72.1390719,47.5852825 72.3614775,47.6189587 C72.5838832,47.6528 72.7718593,47.6901079 72.9250793,47.7315429 C73.0734042,47.7729778 73.1882784,47.8078095 73.2701916,47.8362032 C73.3519416,47.8647619 73.4132949,47.8789587 73.4542515,47.8789587 C73.5002665,47.8789587 73.5387754,47.8583238 73.5692889,47.8168889 L73.6536497,47.84 L72.9634251,49.1203556 L72.8868967,49.0660444" id="path-27"></path> <filter filterUnits="objectBoundingBox" height="340.9%" id="filter-28" width="311.0%" x="-105.5%" y="-96.4%"><feoffset dx="0" dy="1" in="SourceAlpha" result="shadowOffsetOuter1"></feoffset> <fegaussianblur in="shadowOffsetOuter1" result="shadowBlurOuter1" stddeviation="1.5"></fegaussianblur> <fecolormatrix in="shadowBlurOuter1" type="matrix" values="0 0 0 0 0.384313725   0 0 0 0 0.384313725   0 0 0 0 0.384313725  0 0 0 0.5 0"></fecolormatrix></filter> <path d="M81.1540898,48.7477714 C81.1438099,48.6754667 81.1283084,48.6264381 81.1079117,48.6005206 C81.087515,48.5746032 81.0568383,48.5615619 81.0160449,48.5615619 L78.4852216,48.5615619 L78.4852216,49.252254 L80.1877754,49.252254 C80.228732,49.252254 80.2592455,49.2405333 80.2798054,49.2172571 C80.3000389,49.193981 80.3155404,49.1461079 80.3256572,49.0738032 L80.4178503,49.0738032 L80.4178503,50.3771048 L80.3256572,50.3771048 C80.3155404,50.2892825 80.3000389,50.2323302 80.2798054,50.2064127 C80.2592455,50.1806603 80.228732,50.1677841 80.1877754,50.1677841 L78.4852216,50.1677841 L78.4852216,51.4634921 C78.4852216,51.4996444 78.4968069,51.5293587 78.5196512,51.5528 C78.5428219,51.5759111 78.6027066,51.5929143 78.6999581,51.6029841 L78.6999581,51.696254 L77.0894341,51.696254 L77.0894341,51.6029841 C77.1863593,51.5929143 77.2465704,51.5759111 77.2695778,51.5528 C77.2927485,51.5293587 77.3041707,51.4996444 77.3041707,51.4634921 L77.3041707,47.8479238 C77.3041707,47.8116063 77.2927485,47.7818921 77.2695778,47.7586159 C77.2465704,47.7355048 77.1863593,47.7186667 77.0894341,47.7081016 L77.0894341,47.6151619 L81.0160449,47.6151619 C81.0568383,47.6151619 81.087515,47.6009651 81.1079117,47.5724063 C81.1283084,47.5440127 81.1438099,47.4859048 81.1540898,47.3979175 L81.2461198,47.3979175 L81.2461198,48.7477714 L81.1540898,48.7477714" id="path-29"></path> <filter filterUnits="objectBoundingBox" height="332.6%" id="filter-30" width="340.6%" x="-120.3%" y="-93.1%"><feoffset dx="0" dy="1" in="SourceAlpha" result="shadowOffsetOuter1"></feoffset> <fegaussianblur in="shadowOffsetOuter1" result="shadowBlurOuter1" stddeviation="1.5"></fegaussianblur> <fecolormatrix in="shadowBlurOuter1" type="matrix" values="0 0 0 0 0.384313725   0 0 0 0 0.384313725   0 0 0 0 0.384313725  0 0 0 0.5 0"></fecolormatrix></filter> <path d="M84.8582949,49.3376 C85.0831482,49.3376 85.2378368,49.2948444 85.3221976,49.2094984 C85.4065584,49.1243175 85.4488204,49.0246095 85.4488204,48.9108698 C85.4488204,48.7971302 85.4065584,48.6975873 85.3221976,48.6120762 C85.2378368,48.5267302 85.0831482,48.4841397 84.8582949,48.4841397 L83.5697126,48.4841397 L83.5697126,49.3376 L84.8582949,49.3376 Z M83.5697126,51.4634921 C83.5697126,51.4996444 83.5812979,51.5293587 83.6043054,51.5528 C83.6273129,51.5759111 83.6873608,51.5929143 83.7846123,51.6029841 L83.7846123,51.696254 L82.2046018,51.696254 L82.2046018,51.6029841 C82.3016901,51.5929143 82.3619012,51.5759111 82.3849087,51.5528 C82.4079162,51.5293587 82.4195015,51.4996444 82.4195015,51.4634921 L82.4195015,47.8479238 C82.4195015,47.8116063 82.4079162,47.7818921 82.3849087,47.7586159 C82.3619012,47.7355048 82.3016901,47.7186667 82.2046018,47.7081016 L82.2046018,47.6151619 L85.011515,47.6151619 C85.5791961,47.6151619 85.9905569,47.7198222 86.2464132,47.9293079 C86.5019431,48.1387937 86.6297081,48.4635048 86.6297081,48.9031111 C86.6297081,49.2600127 86.526256,49.5391619 86.3191886,49.741054 C86.1121213,49.942781 85.8500644,50.0877206 85.5331811,50.1755429 L86.437979,51.4634921 C86.4993323,51.5565968 86.5735763,51.6029841 86.6605479,51.6029841 L86.6605479,51.696254 L85.0651991,51.696254 L85.0651991,51.6029841 C85.1776257,51.5980317 85.2340838,51.5514794 85.2340838,51.4634921 C85.2340838,51.4530921 85.213524,51.4167746 85.1727305,51.3547048 C85.131774,51.2926349 85.0805374,51.217854 85.0191841,51.1298667 C84.9578308,51.0418794 84.8901138,50.947619 84.8160329,50.8465905 C84.7417889,50.745727 84.6703189,50.6488254 84.6012964,50.5555556 C84.532274,50.4626159 84.472226,50.3799111 84.4209895,50.3074413 C84.3699162,50.2349714 84.3367919,50.1859429 84.3214536,50.1600254 L83.5697126,50.1600254 L83.5697126,51.4634921 Z" id="path-31"></path> <filter filterUnits="objectBoundingBox" height="345.0%" id="filter-32" width="324.4%" x="-112.2%" y="-98.0%"><feoffset dx="0" dy="1" in="SourceAlpha" result="shadowOffsetOuter1"></feoffset> <fegaussianblur in="shadowOffsetOuter1" result="shadowBlurOuter1" stddeviation="1.5"></fegaussianblur> <fecolormatrix in="shadowBlurOuter1" type="matrix" values="0 0 0 0 0.384313725   0 0 0 0 0.384313725   0 0 0 0 0.384313725  0 0 0 0.5 0"></fecolormatrix></filter> <path d="M90.5179731,50.1910603 L89.7740644,48.3444825 L89.091509,50.1910603 L90.5179731,50.1910603 Z M88.6543668,51.5253968 C88.6543668,51.5514794 88.6631781,51.5707937 88.6812904,51.5836698 C88.6990763,51.5967111 88.7359536,51.6029841 88.7924117,51.6029841 L88.7924117,51.696254 L87.4349701,51.696254 L87.4349701,51.6029841 C87.491265,51.5929143 87.5320584,51.5759111 87.5576766,51.5528 C87.5831317,51.5293587 87.60875,51.4867683 87.6345314,51.4246984 C87.644485,51.398781 87.6701033,51.3289524 87.7110599,51.2152127 C87.7518533,51.101473 87.8055374,50.957854 87.8722754,50.7845206 C87.938524,50.6111873 88.012768,50.4185397 88.094518,50.2064127 C88.176268,49.9944508 88.2581811,49.778527 88.3399311,49.5586413 C88.4216811,49.3387556 88.5022889,49.1243175 88.5814281,48.9146667 C88.6607305,48.705346 88.7310584,48.5178159 88.7924117,48.3522413 C88.853765,48.1866667 88.9036961,48.052127 88.9418787,47.9486222 C88.9803877,47.8454476 88.999479,47.7909714 88.999479,47.7856889 C88.999479,47.7599365 88.9828353,47.7419429 88.9497111,47.7315429 C88.9162605,47.7213079 88.8818308,47.7135492 88.8460958,47.7081016 L88.8460958,47.6151619 L90.847747,47.6151619 L90.847747,47.7081016 C90.8067904,47.7135492 90.7736662,47.7213079 90.7482111,47.7315429 C90.7224296,47.7419429 90.7097021,47.7676952 90.7097021,47.8091302 C90.7097021,47.8195302 90.734015,47.8867175 90.7824775,48.0106921 C90.8311033,48.1348317 90.893762,48.2966095 90.9704536,48.4956952 C91.0473084,48.694946 91.1354222,48.9197841 91.2351213,49.1707048 C91.3346572,49.4216254 91.4382725,49.6776635 91.5456407,49.938819 C91.653009,50.2001397 91.7564611,50.4548571 91.8563234,50.7031365 C91.9560225,50.9514159 92.046747,51.1739429 92.128497,51.3703873 C92.1692904,51.4634921 92.2038832,51.5253968 92.2319491,51.5565968 C92.260015,51.5874667 92.2972186,51.6029841 92.3432335,51.6029841 L92.3432335,51.696254 L90.8324087,51.696254 L90.8324087,51.6029841 C90.929497,51.5980317 90.9781228,51.5668317 90.9781228,51.5100444 C90.9781228,51.5047619 90.9653952,51.4700952 90.9397769,51.405219 C90.9141587,51.3405079 90.8860928,51.2682032 90.8554162,51.1881397 C90.8247395,51.1079111 90.7953683,51.0316444 90.7673024,50.9591746 C90.7390734,50.8867048 90.7224296,50.8375111 90.7173713,50.8115937 L88.8997799,50.8115937 C88.8487066,50.9514159 88.80775,51.0651556 88.7770734,51.1531429 C88.7463967,51.2411302 88.7220838,51.3109587 88.7041347,51.3624635 C88.6863488,51.4144635 88.6736213,51.4517714 88.6659521,51.4750476 C88.6582829,51.4983238 88.6543668,51.5151619 88.6543668,51.5253968 Z" id="path-33"></path> <filter filterUnits="objectBoundingBox" height="345.0%" id="filter-34" width="303.7%" x="-101.9%" y="-98.0%"><feoffset dx="0" dy="1" in="SourceAlpha" result="shadowOffsetOuter1"></feoffset> <fegaussianblur in="shadowOffsetOuter1" result="shadowBlurOuter1" stddeviation="1.5"></fegaussianblur> <fecolormatrix in="shadowBlurOuter1" type="matrix" values="0 0 0 0 0.384313725   0 0 0 0 0.384313725   0 0 0 0 0.384313725  0 0 0 0.5 0"></fecolormatrix></filter> <path d="M93.4936078,47.8479238 C93.4936078,47.8116063 93.4820225,47.7818921 93.459015,47.7586159 C93.4360075,47.7355048 93.3757964,47.7186667 93.2787081,47.7081016 L93.2787081,47.6151619 L95.126976,47.6151619 L95.126976,47.7081016 C95.0400045,47.7135492 94.9825674,47.7251048 94.9545015,47.7430984 C94.9264356,47.7614222 94.9124027,47.7833778 94.9124027,47.8091302 C94.9124027,47.8195302 94.9455269,47.8660825 95.0119386,47.9486222 C95.0785135,48.0314921 95.165485,48.1348317 95.2728533,48.2589714 C95.3800584,48.3831111 95.5014596,48.5216127 95.6370569,48.674146 C95.772491,48.8268444 95.9092305,48.9795429 96.0474386,49.1319111 C96.1854835,49.2844444 96.3183069,49.4293841 96.4460719,49.5664 C96.574,49.7034159 96.6838159,49.8212825 96.776009,49.9195048 L96.776009,47.8479238 C96.776009,47.7599365 96.7223249,47.7135492 96.6149566,47.7081016 L96.6149566,47.6151619 L98.01825,47.6151619 L98.01825,47.7081016 C97.9211617,47.7186667 97.8611138,47.7355048 97.8381063,47.7586159 C97.8150988,47.7818921 97.8036766,47.8116063 97.8036766,47.8479238 L97.8036766,51.4634921 C97.8036766,51.4996444 97.8150988,51.5293587 97.8381063,51.5528 C97.8611138,51.5759111 97.9211617,51.5929143 98.01825,51.6029841 L98.01825,51.696254 L96.5612725,51.696254 L96.5612725,51.6029841 C96.6327425,51.6029841 96.6800629,51.5952254 96.7032335,51.579873 C96.7260778,51.5643556 96.7376632,51.5437206 96.7376632,51.5178032 C96.7376632,51.5022857 96.729994,51.4828063 96.7146557,51.4595302 C96.6991542,51.436254 96.6658668,51.3963048 96.6149566,51.3393524 C96.5637201,51.2824 96.4883338,51.2010159 96.3886347,51.0948698 C96.2890988,50.9888889 96.1572545,50.8465905 95.9937545,50.6681397 C95.8299281,50.4896889 95.6280823,50.267327 95.3878907,50.0008889 C95.1473728,49.7346159 94.8587186,49.4100698 94.5212754,49.0272508 L94.5212754,51.4634921 C94.5212754,51.4996444 94.5326976,51.5293587 94.5557051,51.5528 C94.5787126,51.5759111 94.6387605,51.5929143 94.736012,51.6029841 L94.736012,51.696254 L93.2787081,51.696254 L93.2787081,51.6029841 C93.3757964,51.5929143 93.4360075,51.5759111 93.459015,51.5528 C93.4820225,51.5293587 93.4936078,51.4996444 93.4936078,51.4634921 L93.4936078,47.8479238" id="path-35"></path> <filter filterUnits="objectBoundingBox" height="345.0%" id="filter-36" width="311.0%" x="-105.5%" y="-98.0%"><feoffset dx="0" dy="1" in="SourceAlpha" result="shadowOffsetOuter1"></feoffset> <fegaussianblur in="shadowOffsetOuter1" result="shadowBlurOuter1" stddeviation="1.5"></fegaussianblur> <fecolormatrix in="shadowBlurOuter1" type="matrix" values="0 0 0 0 0.384313725   0 0 0 0 0.384313725   0 0 0 0 0.384313725  0 0 0 0.5 0"></fecolormatrix></filter> <path d="M102.919007,49.0660444 C102.924066,49.0503619 102.927819,49.033854 102.930593,49.0155302 C102.93304,48.9975365 102.934346,48.975581 102.934346,48.9496635 C102.934346,48.9082286 102.899753,48.8669587 102.830731,48.8255238 C102.761871,48.7840889 102.669841,48.7466159 102.554804,48.7129397 C102.439766,48.6792635 102.307922,48.6508698 102.15976,48.6275937 C102.011436,48.6043175 101.855605,48.5927619 101.691942,48.5927619 C101.538558,48.5927619 101.377506,48.6109206 101.208784,48.647073 C101.040063,48.6833905 100.885374,48.742819 100.744719,48.8255238 C100.604226,48.9082286 100.489189,49.0181714 100.399769,49.1551873 C100.310187,49.2923683 100.265478,49.4590984 100.265478,49.6555429 C100.265478,49.8523175 100.310187,50.0190476 100.399769,50.1562286 C100.489189,50.2932444 100.604226,50.4031873 100.744719,50.4858921 C100.885374,50.5687619 101.040063,50.6281905 101.208784,50.6643429 C101.377506,50.7004952 101.538558,50.718654 101.691942,50.718654 C101.758353,50.718654 101.863274,50.7069333 102.006377,50.6836571 C102.149481,50.660381 102.292747,50.6281905 102.43585,50.5867556 C102.578954,50.5453206 102.705576,50.4987683 102.815555,50.4469333 C102.925371,50.3954286 102.980361,50.3411175 102.980361,50.2841651 C102.980361,50.2584127 102.975139,50.2376127 102.965022,50.2220952 C102.954743,50.2064127 102.944626,50.188419 102.934346,50.1677841 L103.018707,50.113473 L103.808793,51.3315937 L103.7166,51.3859048 C103.70632,51.3601524 103.692287,51.3431492 103.674338,51.3353905 C103.656389,51.3276317 103.634687,51.3238349 103.609232,51.3238349 C103.573334,51.3238349 103.501864,51.3459556 103.394496,51.3897016 C103.287127,51.4337778 103.147777,51.4803302 102.976608,51.5293587 C102.805112,51.5787175 102.604572,51.6224635 102.374497,51.6612571 C102.144422,51.7000508 101.886118,51.7193651 101.599912,51.7193651 C101.293308,51.7193651 100.988826,51.6794159 100.687281,51.5991873 C100.385573,51.5189587 100.114705,51.3923429 99.8743503,51.2190095 C99.6339955,51.0458413 99.4396557,50.8285968 99.291494,50.5672762 C99.1431692,50.3062857 99.0690883,50.0022095 99.0690883,49.6555429 C99.0690883,49.3092063 99.1431692,49.0052952 99.291494,48.7439746 C99.4396557,48.482819 99.6339955,48.2655746 99.8743503,48.0924063 C100.114705,47.919073 100.385573,47.7884952 100.687281,47.7005079 C100.988826,47.6125206 101.293308,47.5686095 101.599912,47.5686095 C101.906678,47.5686095 102.171183,47.5852825 102.393751,47.6189587 C102.616157,47.6528 102.80397,47.6901079 102.957353,47.7315429 C103.105678,47.7729778 103.220552,47.8078095 103.302466,47.8362032 C103.384216,47.8647619 103.445569,47.8789587 103.486525,47.8789587 C103.53254,47.8789587 103.571049,47.8583238 103.601563,47.8168889 L103.685924,47.84 L102.995699,49.1203556 L102.919007,49.0660444" id="path-37"></path> <filter filterUnits="objectBoundingBox" height="340.9%" id="filter-38" width="311.0%" x="-105.5%" y="-96.4%"><feoffset dx="0" dy="1" in="SourceAlpha" result="shadowOffsetOuter1"></feoffset> <fegaussianblur in="shadowOffsetOuter1" result="shadowBlurOuter1" stddeviation="1.5"></fegaussianblur> <fecolormatrix in="shadowBlurOuter1" type="matrix" values="0 0 0 0 0.384313725   0 0 0 0 0.384313725   0 0 0 0 0.384313725  0 0 0 0.5 0"></fecolormatrix></filter> <path d="M107.804263,50.2064127 C107.79382,50.1549079 107.772281,50.1121524 107.738994,50.0784762 C107.705707,50.0449651 107.650717,50.0279619 107.574189,50.0279619 L106.147725,50.0279619 L106.147725,50.7495238 L108.609362,50.7495238 C108.650319,50.7495238 108.680996,50.735327 108.701555,50.7069333 C108.721952,50.6787048 108.73729,50.6151492 108.74757,50.516927 L108.8396,50.516927 L108.8396,51.8435048 L108.74757,51.8435048 C108.73729,51.7763175 108.721952,51.7350476 108.701555,51.7193651 C108.680996,51.7040127 108.650319,51.696254 108.609362,51.696254 L104.782451,51.696254 L104.782451,51.6029841 C104.879539,51.5929143 104.93975,51.5759111 104.962757,51.5528 C104.985765,51.5293587 104.99735,51.4996444 104.99735,51.4634921 L104.99735,47.8479238 C104.99735,47.8116063 104.985765,47.7818921 104.962757,47.7586159 C104.93975,47.7355048 104.879539,47.7186667 104.782451,47.7081016 L104.782451,47.6151619 L108.609362,47.6151619 C108.650319,47.6151619 108.680996,47.6009651 108.701555,47.5724063 C108.721952,47.5440127 108.73729,47.4859048 108.74757,47.3979175 L108.8396,47.3979175 L108.8396,48.7477714 L108.74757,48.7477714 C108.73729,48.6599492 108.721952,48.6018413 108.701555,48.5732825 C108.680996,48.545054 108.650319,48.5306921 108.609362,48.5306921 L106.147725,48.5306921 L106.147725,49.1745016 L107.574189,49.1745016 C107.650717,49.1745016 107.705707,49.1579937 107.738994,49.1243175 C107.772281,49.0904762 107.79382,49.0480508 107.804263,48.9960508 L107.89613,48.9960508 L107.89613,50.2064127 L107.804263,50.2064127" id="path-39"></path> <filter filterUnits="objectBoundingBox" height="324.9%" id="filter-40" width="346.5%" x="-123.2%" y="-90.0%"><feoffset dx="0" dy="1" in="SourceAlpha" result="shadowOffsetOuter1"></feoffset> <fegaussianblur in="shadowOffsetOuter1" result="shadowBlurOuter1" stddeviation="1.5"></fegaussianblur> <fecolormatrix in="shadowBlurOuter1" type="matrix" values="0 0 0 0 0.384313725   0 0 0 0 0.384313725   0 0 0 0 0.384313725  0 0 0 0.5 0"></fecolormatrix></filter> <path d="M55.2884551,11.6286857 C55.4113249,11.4636063 55.6335674,11.5573714 55.8003308,11.5487873 C56.2286617,11.6220825 56.0093563,11.4642667 56.3510419,11.8872 C56.6878323,12.138946 56.6463862,11.7985524 57.0595419,12.0664762 C57.4859147,12.4747175 57.4877096,12.3276317 58.0232455,12.405054 L58.0232455,12.4448381 L57.9449222,12.5042667 L57.8465284,12.5244063 L57.7476452,12.5641905 L57.669485,12.5841651 L57.6298338,12.6041397 C57.4297829,12.4700952 57.1594042,12.4697651 56.9420569,12.5641905 L56.9420569,12.5042667 L56.9219865,12.4448381 L56.7054551,12.2259429 L56.6266422,12.1858286 L56.5476662,12.1661841 L56.4495988,12.1661841 L56.3709491,12.1460444 L56.2526482,12.1065905 L56.1149296,12.0065524 L55.917979,11.847581 L55.7606796,11.7681778 L55.6231243,11.708254 L55.3871751,11.708254 L55.3081991,11.7280635 L55.2494566,11.7280635 L55.2494566,11.6882794 L55.2884551,11.6286857" id="path-41"></path> <filter filterUnits="objectBoundingBox" height="1030.9%" id="filter-42" width="460.5%" x="-180.3%" y="-372.4%"><feoffset dx="0" dy="1" in="SourceAlpha" result="shadowOffsetOuter1"></feoffset> <fegaussianblur in="shadowOffsetOuter1" result="shadowBlurOuter1" stddeviation="1.5"></fegaussianblur> <fecolormatrix in="shadowBlurOuter1" type="matrix" values="0 0 0 0 0.384313725   0 0 0 0 0.384313725   0 0 0 0 0.384313725  0 0 0 0.5 0"></fecolormatrix></filter> <path d="M67.6253623,24.2882921 L67.5661302,24.1293206 L67.5860374,23.970019 L67.6253623,23.8505016 L67.6446168,23.8107175 L57.3545599,23.8107175 L58.4956332,24.8261206 L58.5941901,24.8655746 L58.6924207,24.945473 L58.7906512,25.0047365 L58.8888817,25.0846349 C59.1509386,25.3190476 59.2539012,25.665054 59.3224341,26.0004952 L59.3023638,26.1195175 L59.2434581,26.1799365 L59.1843892,26.2789841 L59.1055763,26.4381206 L59.0660883,26.7169397 L59.0266003,27.1547302 C59.0331272,27.4725079 59.0700045,28.0577143 58.731256,28.2498667 L58.6924207,28.2099175 L58.6723503,28.2099175 C58.6575015,29.0861587 58.3417605,29.9411048 57.8465284,30.6583746 C57.5537949,30.9371937 57.5090853,31.2661968 57.7280644,31.5933841 C57.5441677,31.7102603 57.2865165,32.7639619 57.3150719,32.9277206 L57.3545599,33.0667175 L57.4133024,33.2261841 L57.5115329,33.3452063 L57.6298338,33.4452444 L57.7871332,33.5442921 L57.925015,33.5645968 L58.0625704,33.5442921 L58.1213129,33.5045079 L58.1022216,33.4643937 L58.0232455,33.4048 L57.9643398,33.3452063 L57.925015,33.265473 L57.9844102,33.1665905 L58.1412201,33.0467429 L58.4563084,32.8876063 L58.633515,32.7283048 L58.6723503,32.5490286 L58.5941901,32.4103619 L58.5347949,32.3704127 L58.5746093,32.3704127 L58.633515,32.3299683 L58.7906512,32.2905143 L58.9290225,32.210946 L59.1055763,32.0712889 L59.2824566,31.8726984 L59.4598263,31.5933841 L59.6365434,31.2354921 L59.8530749,31.2551365 L60.0309341,31.2156825 L60.1480928,31.1560889 L60.2858114,31.0562159 L60.463018,30.9371937 L60.6996198,30.8175111 L61.0339626,30.7179683 L61.506024,30.5786413 L61.644232,30.5390222 L61.7414835,30.4987429 L61.8402036,30.4394794 L61.8991093,30.3988698 L61.9196692,30.320127 L61.93925,30.2595429 C61.8576632,29.7172571 62.0516766,29.9128762 62.5880284,29.6033524 C63.6021527,28.9299937 64.1207186,28.4055365 64.7327829,27.3736254 L64.8114326,27.1945143 L64.9294072,27.0355429 L65.0875225,26.8962159 L65.322982,26.7567238 L65.5987455,26.6173968 L65.8156033,26.5374984 L66.1099686,26.5374984 L66.2284326,26.5776127 L66.3064296,26.5776127 L66.4053129,26.5181841 L66.5033802,26.418146 L66.7009835,26.1391619 L66.8579566,25.920927 C67.0578443,25.515327 67.0433219,25.2162032 67.3691796,24.8261206 L67.4282485,24.7661968 L67.4873174,24.6866286 L67.5468757,24.6268698 L67.5860374,24.527327 L67.6446168,24.4479238 L67.6446168,24.3480508 L67.6253623,24.2882921" id="path-43"></path> <filter filterUnits="objectBoundingBox" height="202.5%" id="filter-44" width="196.8%" x="-48.4%" y="-41.0%"><feoffset dx="0" dy="1" in="SourceAlpha" result="shadowOffsetOuter1"></feoffset> <fegaussianblur in="shadowOffsetOuter1" result="shadowBlurOuter1" stddeviation="1.5"></fegaussianblur> <fecolormatrix in="shadowBlurOuter1" type="matrix" values="0 0 0 0 0.384313725   0 0 0 0 0.384313725   0 0 0 0 0.384313725  0 0 0 0.5 0"></fecolormatrix></filter> <polyline id="path-45" points="60.4243623 13.1603684 60.404582 13.239513 60.3455683 13.2985445 60.1874898 13.2985445 60.1480928 13.0817143 60.2275407 13.0817143 60.2860641 13.1214501 60.3455683 13.1214501 60.4243623 13.1603684"></polyline> <filter filterUnits="objectBoundingBox" height="1021.7%" id="filter-46" width="1027.6%" x="-500.0%" y="-400.0%"><feoffset dx="0" dy="1" in="SourceAlpha" result="shadowOffsetOuter1"></feoffset> <fegaussianblur in="shadowOffsetOuter1" result="shadowBlurOuter1" stddeviation="1.5"></fegaussianblur> <fecolormatrix in="shadowBlurOuter1" type="matrix" values="0 0 0 0 0.384313725   0 0 0 0 0.384313725   0 0 0 0 0.384313725  0 0 0 0.5 0"></fecolormatrix></filter> <path d="M59.5977081,12.9818413 C59.2297515,13.0554667 58.8216542,13.0293841 58.4956332,13.2410159 C58.4328114,13.0409397 58.3034147,13.0832 58.1412201,13.0817143 L58.2203593,12.9818413 L58.2396138,12.8827937 L58.2396138,12.5841651 C58.7922829,12.3456254 59.2106602,12.8819683 59.5977081,12.9818413" id="path-47"></path> <filter filterUnits="objectBoundingBox" height="1071.7%" id="filter-48" width="786.6%" x="-343.3%" y="-400.0%"><feoffset dx="0" dy="1" in="SourceAlpha" result="shadowOffsetOuter1"></feoffset> <fegaussianblur in="shadowOffsetOuter1" result="shadowBlurOuter1" stddeviation="1.5"></fegaussianblur> <fecolormatrix in="shadowBlurOuter1" type="matrix" values="0 0 0 0 0.384313725   0 0 0 0 0.384313725   0 0 0 0 0.384313725  0 0 0 0.5 0"></fecolormatrix></filter> <path d="M34.9806781,24.6866286 C29.2126527,42.1705143 5.87702545,42.6173841 0.154851796,24.8457651 C6.25330389,40.6509587 29.016518,40.5568635 34.9806781,24.6866286" id="path-49"></path> <filter filterUnits="objectBoundingBox" height="175.2%" id="filter-50" width="128.7%" x="-14.4%" y="-30.1%"><feoffset dx="0" dy="1" in="SourceAlpha" result="shadowOffsetOuter1"></feoffset> <fegaussianblur in="shadowOffsetOuter1" result="shadowBlurOuter1" stddeviation="1.5"></fegaussianblur> <fecolormatrix in="shadowBlurOuter1" type="matrix" values="0 0 0 0 0.384313725   0 0 0 0 0.384313725   0 0 0 0 0.384313725  0 0 0 0.5 0"></fecolormatrix></filter> <path d="M35.0201662,13.4798857 C32.5559177,5.54088889 25.8680823,0.105485714 17.5282769,0.103165196 C8.82426796,0.0952507937 2.78455838,5.09368889 0.115363772,13.3006095 C2.29976946,7.56344127 6.66548054,3.91535238 11.6315075,2.32415238 C11.5345823,2.50739048 11.4680075,2.6511746 11.4680075,2.6511746 C11.3694506,2.82995556 11.3144611,3.05726984 11.1534087,3.1888381 C10.7240988,3.38412698 10.5310644,4.08257778 10.3269341,4.48256508 L10.2484476,4.64203175 L10.2484476,4.7216 L10.2678653,4.74124444 L10.2678653,4.92052063 C10.0857635,5.50060952 9.48251048,5.94764444 9.20544162,6.49306667 L9.04797904,6.83147937 L8.9497485,7.12977778 L8.87077246,7.42840635 L8.79228593,7.64730159 L8.77303144,7.80693333 L8.75263473,7.84655238 C9.1139012,8.54632381 9.20837874,9.35933968 9.08763024,10.1357079 L9.08763024,10.1555175 L9.10721108,10.1754921 L9.16627994,10.214946 L9.24460329,10.2951746 L9.34332335,10.4543111 L9.42180988,10.6136127 L9.48120509,10.8125333 L9.55936527,11.011619 L9.63801497,11.2303492 L9.69724701,11.4296 L9.77605988,11.5289778 L9.81522156,11.5487873 C10.2420838,10.8912762 9.40092365,9.7911873 9.55936527,9.02092698 L9.59885329,9.02092698 L9.69724701,8.94168889 L9.77605988,8.92138413 C9.85389371,10.0744635 10.4679162,11.1012571 11.0349446,12.0664762 L10.9762021,12.1460444 L10.8580644,12.3251556 L10.8580644,12.5042667 L11.0745958,12.5641905 L10.9368772,12.8827937 L11.0745958,12.8827937 L11.1534087,12.9026032 L11.2518024,12.9026032 L11.3500329,12.9427175 L11.4680075,12.9818413 L11.5468204,13.0619048 L11.6452141,13.1218286 L11.8026766,13.2808 L12.0387889,13.4602413 L12.1371826,13.4798857 L12.2158323,13.4996952 L15.855747,13.4996952 C15.9735584,13.0234413 16.085985,12.5182984 16.3671332,12.1065905 L16.3475524,12.1065905 L16.269229,12.0664762 L15.914979,12.0664762 L15.8165853,12.0468317 L15.7180284,11.9869079 L15.6591228,11.9274794 L15.5803099,11.9274794 C15.4115883,12.0195937 15.2425404,12.5620444 15.1279925,12.6835429 C15.006265,13.0827048 14.2403278,13.0668571 13.9081063,13.1016889 C13.6101512,13.1730032 13.6790105,13.074781 13.4750434,12.862819 C13.3686542,12.6672 13.2617754,12.4709206 13.1405374,12.2858667 C12.537774,10.9708444 13.8260299,8.95093333 15.3636153,9.65796825 C16.1757305,9.00920635 16.3955254,9.69560635 17.0957036,9.37914921 L17.3903952,9.31955556 L17.5871826,9.37914921 L17.7053204,9.55859048 L17.7839701,9.81726984 L17.8629461,10.1357079 L17.9805943,10.4343365 L18.1578009,10.693181 L18.4335644,10.872127 L18.5314686,10.4940952 L18.4722365,10.1555175 L18.3744955,9.81726984 L18.1380569,9.2599619 L18.0791512,9.00111746 L18.1380569,8.78205714 L18.3545883,8.58313651 C18.7116123,8.38586667 19.426476,7.9759746 19.5752904,7.56789841 L19.6927754,7.32902857 L19.7905165,7.09048889 L19.9483054,6.73193651 L20.0271183,6.59244444 L20.1062575,6.47292698 L20.1844177,6.39368889 L20.2630674,6.35340952 L20.4397844,6.2543619 L20.5781557,6.13484444 L20.656479,6.0151619 L20.7157111,5.87583492 L20.7354551,5.75648254 L20.7354551,5.67707937 L20.7157111,5.59734603 L20.7157111,5.57720635 L20.7545464,5.57720635 L20.8335225,5.59734603 L20.9320793,5.61732063 L21.0895419,5.61732063 L21.2667485,5.59734603 L21.4434656,5.5375873 L21.6598338,5.45785397 L21.8375299,5.29871746 L21.6993219,5.23895873 L21.5221153,5.15955556 L21.3847231,5.07965714 L21.2667485,4.98027937 L21.1484476,4.90054603 L21.0502171,4.78135873 L21.0502171,4.52218413 L21.1680284,4.40299683 L21.3453982,4.40299683 L21.6014177,4.42280635 L21.8766916,4.50270476 L22.1521287,4.56213333 L22.4275659,4.56213333 L22.6641677,4.46275556 L22.8407216,4.24353016 C22.0439446,3.91832381 21.6115344,3.38132063 20.9124985,3.04951111 L20.7941976,3.16902857 L20.6958039,3.22862222 L20.479762,3.22862222 L20.3612979,3.1888381 L20.2630674,3.12891429 L20.1253488,3.02937143 L19.9877934,2.91001905 C19.4068952,2.40058413 19.2048862,2.89978413 18.8268129,2.51217778 L18.7481632,2.73074286 L18.7481632,3.02937143 L18.8268129,3.12891429 L18.8858817,3.1888381 L19.0041826,3.22862222 L19.0828323,3.26824127 L19.161482,3.328 L19.2598757,3.44735238 L19.2598757,3.48713651 L19.2208772,3.46732698 L19.1019237,3.44735238 L18.9842754,3.46732698 L18.8664641,3.56686984 L18.8073952,3.74614603 L18.8073952,4.12450794 L18.7876512,4.24353016 L18.7481632,4.30345397 L18.6497695,4.36304762 L18.5512126,4.3432381 L18.4335644,4.30345397 C17.906024,3.95794286 18.2821392,3.84568889 17.7053204,3.62679365 C17.2980389,3.4047619 16.5229641,3.5511873 16.1904162,3.1888381 L16.2493219,3.08929524 L16.3281347,2.96994286 L16.4658533,2.87006984 L16.6035719,2.73074286 L16.8001961,2.61139048 L17.0165644,2.45241905 L17.253003,2.2927873 L17.5282769,2.17326984 C18.4386228,1.68314921 19.6454551,1.57650794 20.656479,1.71550476 C20.656479,1.71550476 20.5761976,1.67671111 20.4472904,1.61612698 C26.6684491,2.55295238 32.455729,6.50924444 35.0201662,13.4798857" id="path-51"></path> <filter filterUnits="objectBoundingBox" height="174.6%" id="filter-52" width="128.6%" x="-14.3%" y="-29.9%"><feoffset dx="0" dy="1" in="SourceAlpha" result="shadowOffsetOuter1"></feoffset> <fegaussianblur in="shadowOffsetOuter1" result="shadowBlurOuter1" stddeviation="1.5"></fegaussianblur> <fecolormatrix in="shadowBlurOuter1" type="matrix" values="0 0 0 0 0.384313725   0 0 0 0 0.384313725   0 0 0 0 0.384313725  0 0 0 0.5 0"></fecolormatrix></filter> <path d="M23.4335314,15.132 L20.5611856,15.132 L20.993759,15.6693333 L20.993759,19.7700698 L20.8955284,20.0285841 L20.7778802,20.2276698 C20.5190868,20.5754921 20.0003578,20.6859302 19.5966662,20.6856 L19.3019746,20.6654603 L19.0459551,20.6060317 L18.7900988,20.5262984 L18.5934746,20.3869714 L18.436012,20.2276698 L18.3183638,20.0285841 L18.2194805,19.7700698 L18.2194805,15.6693333 L18.6522171,15.132 L15.7800344,15.132 L16.212771,15.6693333 C16.4795599,19.4532825 15.0018593,22.1143619 19.5966662,22.1584381 C24.2441781,22.1120508 22.7044716,19.512546 23.0006317,15.6693333 L23.4335314,15.132" id="path-53"></path> <filter filterUnits="objectBoundingBox" height="242.3%" id="filter-54" width="230.7%" x="-65.3%" y="-56.9%"><feoffset dx="0" dy="1" in="SourceAlpha" result="shadowOffsetOuter1"></feoffset> <fegaussianblur in="shadowOffsetOuter1" result="shadowBlurOuter1" stddeviation="1.5"></fegaussianblur> <fecolormatrix in="shadowBlurOuter1" type="matrix" values="0 0 0 0 0.384313725   0 0 0 0 0.384313725   0 0 0 0 0.384313725  0 0 0 0.5 0"></fecolormatrix></filter> <polyline id="path-55" points="33.3894087 15.132 30.9891243 15.132 31.4024431 15.6693333 31.4024431 19.152673 27.9394087 15.132 25.774747 15.132 26.2079731 15.6693333 26.2079731 21.5213968 25.774747 22.0192762 28.1753578 22.0192762 27.7622021 21.5213968 27.7622021 17.998273 31.4416048 22.0192762 32.9566722 22.0192762 32.9566722 15.6693333 33.3894087 15.132"></polyline> <filter filterUnits="objectBoundingBox" height="245.2%" id="filter-56" width="231.3%" x="-65.7%" y="-58.1%"><feoffset dx="0" dy="1" in="SourceAlpha" result="shadowOffsetOuter1"></feoffset> <fegaussianblur in="shadowOffsetOuter1" result="shadowBlurOuter1" stddeviation="1.5"></fegaussianblur> <fecolormatrix in="shadowBlurOuter1" type="matrix" values="0 0 0 0 0.384313725   0 0 0 0 0.384313725   0 0 0 0 0.384313725  0 0 0 0.5 0"></fecolormatrix></filter> <polyline id="path-57" points="38.9577096 22.0192762 38.5445539 21.5213968 38.5445539 15.6693333 38.9577096 15.132 36.0852006 15.132 36.5179371 15.6693333 36.5179371 21.5213968 36.0852006 22.0192762 38.9577096 22.0192762"></polyline> <filter filterUnits="objectBoundingBox" height="245.2%" id="filter-58" width="448.1%" x="-174.1%" y="-58.1%"><feoffset dx="0" dy="1" in="SourceAlpha" result="shadowOffsetOuter1"></feoffset> <fegaussianblur in="shadowOffsetOuter1" result="shadowBlurOuter1" stddeviation="1.5"></fegaussianblur> <fecolormatrix in="shadowBlurOuter1" type="matrix" values="0 0 0 0 0.384313725   0 0 0 0 0.384313725   0 0 0 0 0.384313725  0 0 0 0.5 0"></fecolormatrix></filter> <polyline id="path-59" points="48.5007575 15.132 46.0606587 15.132 46.4937216 15.6693333 44.7812141 19.4712762 43.1285913 15.6693333 43.5616542 15.132 40.6893084 15.132 43.8573249 22.0192762 45.273509 22.0192762 48.5007575 15.132"></polyline> <filter filterUnits="objectBoundingBox" height="245.2%" id="filter-60" width="228.0%" x="-64.0%" y="-58.1%"><feoffset dx="0" dy="1" in="SourceAlpha" result="shadowOffsetOuter1"></feoffset> <fegaussianblur in="shadowOffsetOuter1" result="shadowBlurOuter1" stddeviation="1.5"></fegaussianblur> <fecolormatrix in="shadowBlurOuter1" type="matrix" values="0 0 0 0 0.384313725   0 0 0 0 0.384313725   0 0 0 0 0.384313725  0 0 0 0.5 0"></fecolormatrix></filter> <polyline id="path-61" points="56.6065719 22.0192762 56.6065719 20.1679111 56.0756048 20.5862222 52.6130599 20.5862222 52.6130599 19.2723556 54.7964865 19.2723556 55.3081991 19.7106413 55.3081991 17.4809143 54.7964865 17.9187048 52.6130599 17.9187048 52.6130599 16.5851937 56.0756048 16.5851937 56.6065719 17.0229841 56.6065719 15.132 50.1923787 15.132 50.6252784 15.6693333 50.6252784 21.5213968 50.1923787 22.0192762 56.6065719 22.0192762"></polyline> <filter filterUnits="objectBoundingBox" height="245.2%" id="filter-62" width="255.9%" x="-78.0%" y="-58.1%"><feoffset dx="0" dy="1" in="SourceAlpha" result="shadowOffsetOuter1"></feoffset> <fegaussianblur in="shadowOffsetOuter1" result="shadowBlurOuter1" stddeviation="1.5"></fegaussianblur> <fecolormatrix in="shadowBlurOuter1" type="matrix" values="0 0 0 0 0.384313725   0 0 0 0 0.384313725   0 0 0 0 0.384313725  0 0 0 0.5 0"></fecolormatrix></filter> <path d="M61.5848368,18.2970667 L61.5848368,16.5851937 L63.2965284,16.5851937 L63.4536647,16.6447873 L63.6119431,16.6844063 C63.893744,16.829181 63.9903428,17.0725079 64.0051916,17.3813714 C63.9221362,18.5318095 62.2861572,18.328927 61.5848368,18.2970667 Z M66.3460808,22.0192762 L64.496018,19.3119746 C65.4128907,18.9478095 66.0399671,18.2815492 66.0311557,17.2420444 L66.011738,16.8039238 L65.8934371,16.4258921 L65.7167201,16.0673397 L65.4607006,15.7489016 L65.0875225,15.5103619 L64.6337365,15.3111111 L64.0833518,15.1917587 L63.4146662,15.132 L59.164482,15.132 L59.5977081,15.6693333 L59.5977081,21.5213968 L59.164482,22.0192762 L62.0174102,22.0192762 L61.5848368,21.5213968 L61.5848368,19.5909587 L62.4501467,19.5909587 L63.7498249,21.5213968 L63.3159461,22.0192762 L66.3460808,22.0192762 Z" id="path-63"></path> <filter filterUnits="objectBoundingBox" height="245.2%" id="filter-64" width="239.2%" x="-69.6%" y="-58.1%"><feoffset dx="0" dy="1" in="SourceAlpha" result="shadowOffsetOuter1"></feoffset> <fegaussianblur in="shadowOffsetOuter1" result="shadowBlurOuter1" stddeviation="1.5"></fegaussianblur> <fecolormatrix in="shadowBlurOuter1" type="matrix" values="0 0 0 0 0.384313725   0 0 0 0 0.384313725   0 0 0 0 0.384313725  0 0 0 0.5 0"></fecolormatrix></filter> <path d="M74.9836781,20.0285841 C74.9564281,18.5105143 73.3826183,18.0761905 72.2095629,17.7199492 C71.7864536,17.6814857 70.273997,17.1395302 71.1270689,16.5851937 C71.8895793,16.1677079 73.9155434,16.8711111 74.6300808,17.2420444 L74.6300808,14.9127746 L74.0783907,15.4504381 C72.6824401,14.8903238 70.7458952,14.6727492 69.4553548,15.5899302 C69.059985,15.9225651 68.7448967,16.4045968 68.7858533,16.943746 C68.704756,18.2553016 69.8825434,18.8854095 70.9304446,19.252381 L71.285021,19.3720635 L71.639271,19.4513016 L71.9537066,19.5307048 L72.2490509,19.6307429 L72.4659087,19.7106413 L72.6422994,19.8496381 L72.7798548,19.9889651 L72.8196692,20.2081905 C72.8123263,20.6005841 72.2818488,20.7347937 71.9736138,20.7255492 C70.8601168,20.6649651 69.7462934,20.3171429 68.8057605,19.7106413 L68.8057605,22.2583111 L69.3567979,21.6605587 C71.1115674,22.3405206 74.9164506,22.8583746 74.9836781,20.0285841" id="path-65"></path> <filter filterUnits="objectBoundingBox" height="236.1%" id="filter-66" width="261.2%" x="-80.6%" y="-54.5%"><feoffset dx="0" dy="1" in="SourceAlpha" result="shadowOffsetOuter1"></feoffset> <fegaussianblur in="shadowOffsetOuter1" result="shadowBlurOuter1" stddeviation="1.5"></fegaussianblur> <fecolormatrix in="shadowBlurOuter1" type="matrix" values="0 0 0 0 0.384313725   0 0 0 0 0.384313725   0 0 0 0 0.384313725  0 0 0 0.5 0"></fecolormatrix></filter> <path d="M79.6073668,19.5513397 L80.7291856,17.0829079 L81.8704222,19.5513397 L79.6073668,19.5513397 Z M85.1360165,22.0192762 L81.7914461,15.132 L79.4890659,15.132 L79.7256677,15.6693333 L76.7154401,22.0192762 L79.2136287,22.0192762 L78.7815449,21.5213968 L79.1357949,20.7853079 L82.3619012,20.7853079 L82.6967335,21.5213968 L82.2636707,22.0192762 L85.1360165,22.0192762 Z" id="path-67"></path> <filter filterUnits="objectBoundingBox" height="245.2%" id="filter-68" width="218.8%" x="-59.4%" y="-58.1%"><feoffset dx="0" dy="1" in="SourceAlpha" result="shadowOffsetOuter1"></feoffset> <fegaussianblur in="shadowOffsetOuter1" result="shadowBlurOuter1" stddeviation="1.5"></fegaussianblur> <fecolormatrix in="shadowBlurOuter1" type="matrix" values="0 0 0 0 0.384313725   0 0 0 0 0.384313725   0 0 0 0 0.384313725  0 0 0 0.5 0"></fecolormatrix></filter> <polyline id="path-69" points="93.2028323 22.0192762 93.2028323 20.1679111 92.6920988 20.5862222 89.4057814 20.5862222 89.4057814 15.6693333 89.8388443 15.132 86.9854266 15.132 87.4186527 15.6693333 87.4186527 21.5213968 86.9854266 22.0192762 93.2028323 22.0192762"></polyline> <filter filterUnits="objectBoundingBox" height="245.2%" id="filter-70" width="260.8%" x="-80.4%" y="-58.1%"><feoffset dx="0" dy="1" in="SourceAlpha" result="shadowOffsetOuter1"></feoffset> <fegaussianblur in="shadowOffsetOuter1" result="shadowBlurOuter1" stddeviation="1.5"></fegaussianblur> <fecolormatrix in="shadowBlurOuter1" type="matrix" values="0 0 0 0 0.384313725   0 0 0 0 0.384313725   0 0 0 0 0.384313725  0 0 0 0.5 0"></fecolormatrix></filter> <path d="M92.595952,15.7489016 L92.5368705,15.6891429 L92.4380194,15.6495238 L92.3589713,15.6295492 L92.2601202,15.6295492 L92.0825483,15.6495238 L91.9242883,15.7489016 L91.8260919,15.9280127 L91.7861587,16.1270984 L91.8260919,16.325854 L91.9242883,16.4655111 L92.0825483,16.5851937 L92.2601202,16.6248127 L92.3589713,16.5851937 L92.4380194,16.5851937 L92.5368705,16.5450794 L92.595952,16.4854857 L92.595952,16.3662984 L92.5368705,16.4258921 L92.4380194,16.4854857 L92.3589713,16.5056254 L92.2601202,16.5254349 L92.1025149,16.4854857 L91.9846792,16.4060825 L91.8650432,16.1270984 C91.9635669,15.6850159 92.3056179,15.5844825 92.595952,15.868419 L92.595952,15.7489016" id="path-71"></path> <filter filterUnits="objectBoundingBox" height="1099.5%" id="filter-72" width="1081.0%" x="-500.0%" y="-400.0%"><feoffset dx="0" dy="1" in="SourceAlpha" result="shadowOffsetOuter1"></feoffset> <fegaussianblur in="shadowOffsetOuter1" result="shadowBlurOuter1" stddeviation="1.5"></fegaussianblur> <fecolormatrix in="shadowBlurOuter1" type="matrix" values="0 0 0 0 0.384313725   0 0 0 0 0.384313725   0 0 0 0 0.384313725  0 0 0 0.5 0"></fecolormatrix></filter> <path d="M91.3728398,16.1072889 C91.4266871,14.9835937 93.0571183,14.9829333 93.0851841,16.1072889 C93.0675614,17.2603683 91.4142859,17.2572317 91.3728398,16.1072889 Z M91.2946796,16.1072889 C91.283747,17.3333333 93.1279356,17.4295746 93.1839042,16.1072889 C93.116024,14.8114159 91.2966377,14.9048508 91.2946796,16.1072889 Z" id="path-73"></path> <filter filterUnits="objectBoundingBox" height="628.2%" id="filter-74" width="629.3%" x="-264.7%" y="-211.3%"><feoffset dx="0" dy="1" in="SourceAlpha" result="shadowOffsetOuter1"></feoffset> <fegaussianblur in="shadowOffsetOuter1" result="shadowBlurOuter1" stddeviation="1.5"></fegaussianblur> <fecolormatrix in="shadowBlurOuter1" type="matrix" values="0 0 0 0 0.384313725   0 0 0 0 0.384313725   0 0 0 0 0.384313725  0 0 0 0.5 0"></fecolormatrix></filter></defs> <g fill="none" fill-rule="evenodd" id="Symbols" stroke="none" stroke-width="1"><g fill-rule="nonzero" id="navbarWhite" transform="translate(-513.000000, 2.000000)"><g id="umfLogoWhite" transform="translate(516.000000, 0.000000)"><g id="Fill-1"><use fill="black" fill-opacity="1" filter="url(#filter-2)" href="#path-1"></use> <use fill="#FFFFFF" href="#path-1"></use></g> <g id="Fill-4"><use fill="black" fill-opacity="1" filter="url(#filter-4)" href="#path-3"></use> <use fill="#FFFFFF" href="#path-3"></use></g> <g id="Fill-5"><use fill="black" fill-opacity="1" filter="url(#filter-6)" href="#path-5"></use> <use fill="#FFFFFF" href="#path-5"></use></g> <g id="Fill-6"><use fill="black" fill-opacity="1" filter="url(#filter-8)" href="#path-7"></use> <use fill="#FFFFFF" href="#path-7"></use></g> <g id="Fill-7"><use fill="black" fill-opacity="1" filter="url(#filter-10)" href="#path-9"></use> <use fill="#FFFFFF" href="#path-9"></use></g> <g id="Fill-8"><use fill="black" fill-opacity="1" filter="url(#filter-12)" href="#path-11"></use> <use fill="#FFFFFF" href="#path-11"></use></g> <g id="Fill-9"><use fill="black" fill-opacity="1" filter="url(#filter-14)" href="#path-13"></use> <use fill="#FFFFFF" href="#path-13"></use></g> <g id="Fill-10"><use fill="black" fill-opacity="1" filter="url(#filter-16)" href="#path-15"></use> <use fill="#FFFFFF" href="#path-15"></use></g> <g id="Fill-11"><use fill="black" fill-opacity="1" filter="url(#filter-18)" href="#path-17"></use> <use fill="#FFFFFF" href="#path-17"></use></g> <g id="Fill-12"><use fill="black" fill-opacity="1" filter="url(#filter-20)" href="#path-19"></use> <use fill="#FFFFFF" href="#path-19"></use></g> <g id="Fill-13"><use fill="black" fill-opacity="1" filter="url(#filter-22)" href="#path-21"></use> <use fill="#FFFFFF" href="#path-21"></use></g> <g id="Fill-14"><use fill="black" fill-opacity="1" filter="url(#filter-24)" href="#path-23"></use> <use fill="#FFFFFF" href="#path-23"></use></g> <g id="Fill-15"><use fill="black" fill-opacity="1" filter="url(#filter-26)" href="#path-25"></use> <use fill="#FFFFFF" href="#path-25"></use></g> <g id="Fill-16"><use fill="black" fill-opacity="1" filter="url(#filter-28)" href="#path-27"></use> <use fill="#FFFFFF" href="#path-27"></use></g> <g id="Fill-17"><use fill="black" fill-opacity="1" filter="url(#filter-30)" href="#path-29"></use> <use fill="#FFFFFF" href="#path-29"></use></g> <g id="Fill-18"><use fill="black" fill-opacity="1" filter="url(#filter-32)" href="#path-31"></use> <use fill="#FFFFFF" href="#path-31"></use></g> <g id="Fill-19"><use fill="black" fill-opacity="1" filter="url(#filter-34)" href="#path-33"></use> <use fill="#FFFFFF" href="#path-33"></use></g> <g id="Fill-20"><use fill="black" fill-opacity="1" filter="url(#filter-36)" href="#path-35"></use> <use fill="#FFFFFF" href="#path-35"></use></g> <g id="Fill-21"><use fill="black" fill-opacity="1" filter="url(#filter-38)" href="#path-37"></use> <use fill="#FFFFFF" href="#path-37"></use></g> <g id="Fill-22"><use fill="black" fill-opacity="1" filter="url(#filter-40)" href="#path-39"></use> <use fill="#FFFFFF" href="#path-39"></use></g> <g id="Fill-49"><use fill="black" fill-opacity="1" filter="url(#filter-42)" href="#path-41"></use> <use fill="#FFFFFF" href="#path-41"></use></g> <g id="Fill-50"><use fill="black" fill-opacity="1" filter="url(#filter-44)" href="#path-43"></use> <use fill="#FFFFFF" href="#path-43"></use></g> <g id="Fill-51"><use fill="black" fill-opacity="1" filter="url(#filter-46)" href="#path-45"></use> <use fill="#FFFFFF" href="#path-45"></use></g> <g id="Fill-52"><use fill="black" fill-opacity="1" filter="url(#filter-48)" href="#path-47"></use> <use fill="#FFFFFF" href="#path-47"></use></g> <g id="Group-56" transform="translate(37.366766, 0.000000)"><g id="Fill-53"><use fill="black" fill-opacity="1" filter="url(#filter-50)" href="#path-49"></use> <use fill="#FFFFFF" href="#path-49"></use></g> <g id="Fill-55"><use fill="black" fill-opacity="1" filter="url(#filter-52)" href="#path-51"></use> <use fill="#FFFFFF" href="#path-51"></use></g></g> <g id="Fill-57"><use fill="black" fill-opacity="1" filter="url(#filter-54)" href="#path-53"></use> <use fill="#FFFFFF" href="#path-53"></use></g> <g id="Fill-58"><use fill="black" fill-opacity="1" filter="url(#filter-56)" href="#path-55"></use> <use fill="#FFFFFF" href="#path-55"></use></g> <g id="Fill-59"><use fill="black" fill-opacity="1" filter="url(#filter-58)" href="#path-57"></use> <use fill="#FFFFFF" href="#path-57"></use></g> <g id="Fill-60"><use fill="black" fill-opacity="1" filter="url(#filter-60)" href="#path-59"></use> <use fill="#FFFFFF" href="#path-59"></use></g> <g id="Fill-61"><use fill="black" fill-opacity="1" filter="url(#filter-62)" href="#path-61"></use> <use fill="#FFFFFF" href="#path-61"></use></g> <g id="Fill-62"><use fill="black" fill-opacity="1" filter="url(#filter-64)" href="#path-63"></use> <use fill="#FFFFFF" href="#path-63"></use></g> <g id="Fill-63"><use fill="black" fill-opacity="1" filter="url(#filter-66)" href="#path-65"></use> <use fill="#FFFFFF" href="#path-65"></use></g> <g id="Fill-64"><use fill="black" fill-opacity="1" filter="url(#filter-68)" href="#path-67"></use> <use fill="#FFFFFF" href="#path-67"></use></g> <g id="Fill-65"><use fill="black" fill-opacity="1" filter="url(#filter-70)" href="#path-69"></use> <use fill="#FFFFFF" href="#path-69"></use></g> <g id="Fill-66"><use fill="black" fill-opacity="1" filter="url(#filter-72)" href="#path-71"></use> <use fill="#FFFFFF" href="#path-71"></use></g> <g id="Fill-67"><use fill="black" fill-opacity="1" filter="url(#filter-74)" href="#path-73"></use> <use fill="#FFFFFF" href="#path-73"></use></g></g></g></g></svg>